<svg width="288" height="288" viewBox="0 0 288 288" fill="none" xmlns="http://www.w3.org/2000/svg">
<path d="M190.199 81.9536C188.49 84.5646 186.733 87.1413 184.926 89.6836C181.201 94.9193 177.262 99.997 173.12 104.91C169.265 109.486 165.269 113.952 161.636 118.707C158.002 123.462 154.798 128.519 152.498 134.05C150.254 139.464 148.829 145.174 147.996 150.96C146.294 162.743 146.946 174.713 147.836 186.531C148.044 189.369 148.016 192.426 148.955 195.14C149.865 197.793 151.977 199.49 154.611 200.356C157.542 201.324 160.663 201.214 163.699 201.421C166.283 201.592 169.147 201.936 171.169 203.702C172.69 205.028 173.253 207.158 172.093 208.903C170.953 210.6 168.75 211.384 166.839 211.803C165.477 212.098 164.088 212.215 162.713 212.359C161.072 212.531 159.44 212.668 157.8 212.785C154.43 213.012 151.059 213.129 147.683 213.115C141.075 213.101 134.474 212.627 127.936 211.7C126.366 211.48 124.789 211.247 123.232 210.951C122.065 210.724 120.87 210.408 119.897 209.701C118.104 208.408 117.854 206.113 118.632 204.177C120.765 198.858 127.373 199.737 132.015 199.6C134.481 199.531 137.274 199.16 139.026 197.257C141.02 195.099 140.964 191.808 141.138 189.066C141.561 182.312 141.79 175.551 141.833 168.783C141.868 162.207 141.825 155.598 141.207 149.043C140.624 142.824 139.38 136.709 137.212 130.834C135.232 125.468 132.598 120.363 129.583 115.505C123.468 105.666 115.874 96.8432 108.286 88.1101C107.994 87.7734 108.564 87.3818 108.849 87.7116C108.988 87.8765 109.133 88.0345 109.273 88.1994L109.322 88.1582C108.446 87.1962 108.175 85.7052 108.453 84.3929C108.974 81.8918 111.406 80.6069 113.72 80.0297C116.534 79.3289 119.514 79.1159 122.398 78.8067C125.608 78.4563 128.825 78.1745 132.042 77.9547C138.49 77.5287 144.946 77.3706 151.407 77.4806C164.352 77.7073 177.269 79.0197 189.992 81.3971C190.277 81.452 190.332 81.7475 190.199 81.9536Z" fill="white"/>
<path d="M182.214 86.123C182.391 86.2384 182.567 86.3525 182.743 86.4672C181.005 88.7979 179.641 91.3683 177.897 93.7031C175.953 96.3059 174.302 99.1189 172.193 101.611C168.471 106.013 164.973 110.595 161.219 114.97C158.192 118.499 154.817 121.666 151.023 124.383C150.237 124.946 149.395 125.429 148.567 125.935C148.446 125.971 148.322 125.975 148.198 125.952C146.516 125.392 144.958 124.573 143.432 123.69C143.245 123.582 143.031 123.487 143.022 123.222C143.609 122.736 144.363 122.592 145.033 122.279C149.119 120.374 152.895 118.022 156.122 114.863C156.358 114.632 156.573 114.378 156.863 114.207C156.938 114.171 157.016 114.144 157.096 114.125C158.933 113.93 159.593 113.162 159.717 111.063C159.732 110.982 159.755 110.905 159.786 110.829C161.016 109 162.387 107.269 163.635 105.449C165.506 102.721 167.335 99.9668 169.102 97.1716C169.22 96.9854 169.34 96.8006 169.495 96.6384C169.593 96.5409 169.707 96.4673 169.833 96.4103C170.332 96.0942 170.679 95.6641 170.654 95.0636C170.616 94.1325 171.009 93.3589 171.459 92.5927C171.569 92.4052 171.764 92.1901 171.65 91.9908C171.499 91.7263 171.198 91.8678 170.964 91.9043C167.781 92.3921 164.597 92.8779 161.406 93.3149C159.561 93.5671 157.701 93.6275 155.848 93.7581C152.418 94.0006 148.985 94.2081 145.551 94.3882C143.944 94.4727 142.331 94.5214 140.725 94.3256C140.227 94.2652 139.728 94.2624 139.229 94.2672C135.202 94.3057 131.189 94.0398 127.171 93.8144C125.54 93.723 123.906 93.5437 122.266 93.6076C120.951 93.6584 119.684 93.2386 118.376 93.2338C118.189 93.2036 118.021 93.1314 117.871 93.0187C117.577 92.7659 117.384 92.4285 117.145 92.1296C116.715 91.5903 116.211 91.2838 115.492 91.5401C115.246 91.6281 114.972 91.6507 114.795 91.4466C114.33 90.91 113.663 90.8132 113.048 90.5967C112.929 90.1315 113.368 90.2147 113.576 90.0718C114.106 89.8601 114.519 90.7087 115.079 90.2353C115.362 89.9611 115.685 90.0882 116.002 90.1425C116.885 90.2126 117.76 90.1652 118.623 89.9556C120.011 90.0092 121.399 89.9838 122.786 89.9666C126.093 89.9261 129.376 90.3494 132.673 90.4133C135.771 90.473 138.862 90.8448 141.981 90.3878C144.109 90.0766 146.294 90.0889 148.453 89.9762C151.334 89.8265 154.206 89.5599 157.084 89.397C162.838 89.0727 168.457 87.7899 174.162 87.1227C176.253 86.8788 178.343 86.5545 180.373 85.9553C181.002 85.7698 181.628 85.7712 182.214 86.123Z" fill="#EA51A0"/>
<path d="M122.888 81.4892C121.744 82.6057 120.954 82.7514 120.035 82.0134C119.884 81.9186 119.768 81.7956 119.724 81.6184C119.666 81.3655 119.666 81.1119 119.719 80.8591C119.741 80.7808 119.777 80.7072 119.823 80.6399C121.703 79.9865 122.12 78.3134 122.625 76.7021C122.703 76.4506 122.656 76.2191 122.47 76.0225C122.373 75.8515 122.358 75.6618 122.335 75.4742C122.13 74.7061 121.601 74.2024 120.945 73.8018C120.315 73.316 119.973 72.5918 119.443 72.0229C118.9 71.4526 118.339 70.9002 117.761 70.3643C117.091 69.7356 116.218 69.3748 115.554 68.7379C114.823 67.9422 113.927 67.4241 112.865 67.1912C112.752 67.1781 112.641 67.1582 112.53 67.1349C111.903 67.0071 111.386 67.0792 111.233 67.824C110.903 68.0769 110.44 67.8611 110.117 68.1373C109.282 68.5366 108.898 69.2889 108.566 70.0791C108.516 70.2138 108.463 70.3471 108.415 70.4824C108.347 70.6837 108.272 70.883 108.176 71.0733C108.145 71.1379 108.109 71.1998 108.072 71.2609C107.892 71.5213 107.876 71.7838 108.06 72.049C108.96 73.3353 110.255 74.2684 111.21 75.5065C111.594 76.0033 112.02 76.4685 112.342 77.012C112.599 77.5452 112.957 78.0227 113.22 78.5532C113.648 79.3825 113.921 80.2517 113.894 81.1944C113.778 81.294 113.662 81.393 113.545 81.4919C113.316 81.6032 113.067 81.5867 112.823 81.5984C112.294 81.2535 112.2 80.6083 111.812 80.1623C111.585 79.9012 111.469 79.5405 111.095 79.4182C110.601 79.0644 110.227 78.593 109.881 78.112C109.335 77.3521 108.703 76.6911 107.903 76.1923C106.985 75.3581 105.938 74.7349 104.768 74.3027C104.39 74.1626 104.032 74.1076 103.657 74.2684C103.183 74.3941 102.734 74.5789 102.307 74.8167C102.143 74.9019 101.983 74.994 101.836 75.1053C101.777 75.1513 101.715 75.1918 101.652 75.2317C100.909 75.7257 100.503 76.4568 100.2 77.258C100.119 77.4497 100.121 77.6434 100.201 77.8372C100.228 77.9032 100.251 77.9684 100.276 78.0351C100.517 78.5607 100.972 78.929 101.293 79.3942C101.373 79.4753 101.448 79.5598 101.52 79.647C102.168 80.5794 102.744 81.5572 103.356 82.5109C103.555 82.8283 103.773 83.132 103.986 83.4405C104.19 83.8445 104.457 84.2122 104.677 84.6079C104.98 85.1892 105.188 85.8131 105.48 86.4013C105.518 86.5195 105.528 86.6397 105.511 86.762C105.449 87.0224 105.294 87.2093 105.05 87.3234C104.967 87.3447 104.884 87.3453 104.8 87.3282C102.864 87.3728 101.756 86.1443 100.748 84.7577C100.467 84.4458 100.405 84.0335 100.232 83.6714C99.9545 82.9822 99.76 82.258 99.3667 81.617C99.1742 81.2851 98.963 80.9642 98.7788 80.6275C98.5065 80.1287 98.0861 79.8621 97.5143 79.8264C97.0786 79.6855 96.6679 79.5062 96.3831 79.1255C96.2483 78.916 96.078 78.7174 96.1433 78.4384C96.3115 78.1649 96.5762 78.2687 96.8166 78.2694C98.1514 78.2721 98.7816 77.3219 98.1167 76.1902C97.4225 75.0098 97.4385 73.6843 97.1481 72.4201C97.565 72.1116 97.8283 71.7275 97.8895 71.195C98.009 70.1478 98.6392 69.3226 99.1631 68.4527C99.2402 68.4074 99.3201 68.4046 99.4014 68.4424C100.102 70.2681 101.521 71.3351 103.292 72.0181C103.824 72.2229 104.369 72.3108 104.886 71.9528C105.895 71.2533 105.905 70.1567 104.907 69.4215C104.408 69.0553 103.814 68.8767 103.254 68.6458C102.337 68.2679 101.929 67.6495 101.981 66.6614C102.008 66.1282 102.127 65.5621 101.816 65.0543C101.747 64.9767 101.69 64.8915 101.656 64.7946C101.61 64.5184 101.521 64.82 101.456 64.785C101.137 64.9148 100.806 64.7678 100.485 64.8337C99.5265 65.1141 98.8893 65.784 98.3209 66.5487C97.9263 67.0792 97.5789 67.6412 97.187 68.1724C97.0202 68.3977 96.9063 68.744 96.4963 68.6231C96.3143 68.3531 96.4324 68.0989 96.5443 67.8474C97.2613 66.2375 98.1924 64.763 99.3896 63.4561C99.933 62.9483 100.457 62.4206 100.977 61.8888C102.168 60.8918 103.47 60.0783 104.952 59.5671C107.168 59.0277 109.424 59.1514 111.669 59.1981C112.863 59.2222 113.949 59.7176 114.916 60.3786C117.109 61.8764 119.296 63.3895 121.264 65.1752C122.229 66.0506 123.005 67.0943 123.659 68.2212C123.883 68.6581 124.138 69.0828 124.27 69.5617C124.921 72.7554 125.315 75.9525 124.417 79.1674C123.985 79.9913 123.773 80.9566 122.888 81.4892Z" fill="#F9A82D"/>
<path d="M182.214 86.1229C181.555 85.8783 180.939 86.013 180.28 86.2192C178.164 86.8815 175.959 87.111 173.774 87.4278C171.041 87.8242 168.311 88.2344 165.584 88.6549C162.99 89.0541 160.396 89.4252 157.771 89.5819C155.095 89.7413 152.426 90.0044 149.752 90.2064C148.787 90.2793 147.81 90.3308 146.852 90.3411C143.773 90.3748 140.729 91 137.653 90.8599C133.839 90.686 130.023 90.5768 126.213 90.269C124.087 90.0972 121.936 90.238 119.797 90.2188C119.365 90.2147 118.904 90.3493 118.504 90.0594C118.495 89.9254 118.574 89.8553 118.686 89.8072C119.269 89.6313 119.54 89.1882 119.734 88.6584C119.879 88.2647 119.918 87.7961 120.38 87.5858C121.302 86.2961 122.746 86.3985 124.073 86.3002C125.372 86.204 126.683 86.2844 127.989 86.2659C131.681 86.2123 135.376 86.2412 139.06 86.0604C142.714 85.8804 146.368 85.7327 150.021 85.5602C151.045 85.5121 152.069 85.4585 153.093 85.4407C157.034 85.372 160.979 85.3919 164.916 85.2325C166.942 85.15 168.964 85.1088 170.988 85.1418C172.178 85.1603 173.364 85.3232 174.559 85.284C175.159 85.4991 175.798 85.2366 176.401 85.4304C176.731 85.4372 177.061 85.4434 177.392 85.4496C177.879 85.6578 178.413 85.407 178.903 85.5973C179.177 85.6035 179.45 85.609 179.724 85.6152C180.155 85.8227 180.64 85.5671 181.072 85.7663C181.474 85.8186 181.943 85.6612 182.214 86.1229Z" fill="#F48AC7"/>
<path d="M144.065 134.103C144.395 134.097 144.725 134.093 145.054 134.088C145.271 134.211 145.544 134.23 145.724 134.427C145.893 134.697 146.064 134.967 146.233 135.237C146.832 135.663 146.774 136.375 147.007 136.96C147.077 137.215 147.076 137.482 147.148 137.736C147.172 137.804 147.189 137.874 147.204 137.945C147.246 138.186 147.251 138.434 147.336 138.668C147.358 138.734 147.374 138.802 147.385 138.871C147.416 139.108 147.402 139.352 147.482 139.583C147.505 139.649 147.522 139.717 147.537 139.785C147.575 140.063 147.562 140.349 147.665 140.62C147.691 140.692 147.708 140.766 147.722 140.841C147.73 141.207 147.792 141.566 147.86 141.926C147.859 142.022 147.844 142.113 147.816 142.204C148.051 143.494 148.017 144.805 148.149 146.102C148.442 148.992 148.368 151.893 148.251 154.78C148.158 157.102 148.239 159.426 148.098 161.74C147.975 163.752 147.979 165.767 147.842 167.776C147.869 167.872 147.875 167.971 147.863 168.07C147.556 168.986 147.58 169.919 147.725 170.857L147.724 170.855C147.956 171.792 147.888 172.765 147.926 173.705C148.051 176.723 148.061 179.751 147.942 182.77C147.848 185.124 147.674 187.476 147.646 189.834C147.623 191.895 147.642 193.956 147.642 196.017C147.642 196.155 147.645 196.292 147.556 196.411L147.557 196.408C147.354 196.652 147.603 196.993 147.378 197.233C147.002 198.517 146.536 199.761 145.72 200.848C145.301 201.518 144.731 201.924 143.896 201.864C143.45 201.862 143.004 201.859 142.557 201.857C141.563 201.941 140.645 201.12 140.348 199.887C140.296 199.35 140.337 198.809 140.266 198.272C140.256 198.191 140.26 198.11 140.274 198.03C140.369 197.722 140.344 197.4 140.383 197.085C140.392 197.005 140.41 196.926 140.43 196.847C140.526 196.571 140.502 196.283 140.507 195.998C140.769 194.582 141.055 193.171 141.515 191.802C141.696 191.539 141.652 191.21 141.774 190.929C141.82 190.838 141.893 190.788 141.993 190.777C142.084 190.821 142.151 190.888 142.196 190.977C142.478 192.135 142.115 193.266 142.038 194.407C141.984 195.194 142.025 195.951 142.454 196.631C142.858 197.27 143.113 197.254 143.527 196.628C144.092 195.773 144.043 194.777 144.107 193.836C144.383 189.704 144.869 185.588 145.102 181.454C145.184 180.003 145.293 178.555 145.328 177.1C145.411 173.592 145.526 170.084 145.775 166.582C145.878 165.131 145.803 163.673 145.806 162.218C145.813 159.418 145.838 156.617 145.801 153.818C145.743 149.512 145.544 145.21 145.46 140.905C145.448 140.303 145.351 139.7 145.147 139.127C145.053 138.865 144.904 138.58 144.595 138.577C144.251 138.573 144.201 138.913 144.108 139.164C143.887 139.768 144.078 140.426 143.871 141.034C143.83 141.122 143.764 141.188 143.675 141.231C143.441 141.197 143.418 141.008 143.375 140.835C143.337 140.56 143.38 140.276 143.303 140.003C143.279 139.931 143.261 139.857 143.246 139.782C143.238 139.52 143.2 139.262 143.096 139.016C143.072 138.941 143.057 138.865 143.045 138.788C143.022 138.504 142.981 138.225 142.907 137.949C142.894 137.859 142.898 137.772 142.918 137.684C143.009 136.989 143.04 136.297 142.878 135.608C142.855 135.399 142.929 135.226 143.071 135.079C143.204 135.009 143.227 134.888 143.231 134.756C143.421 134.429 143.587 134.071 144.065 134.103Z" fill="#BDE8D5"/>
<path d="M181.071 80.8171C181.797 80.857 182.533 80.7512 183.243 80.9834C183.475 80.8735 183.606 81.0226 183.737 81.1724C183.851 81.3318 183.964 81.4912 184.078 81.6506C184.291 81.7633 184.416 81.9055 184.245 82.1453C184.245 82.2559 184.245 82.3659 184.245 82.4751C184.416 82.7149 184.291 82.8578 184.078 82.9705C183.966 83.1313 183.853 83.2921 183.74 83.4529C183.558 83.6487 183.288 83.6728 183.066 83.7903C182.405 83.7909 181.743 83.7909 181.082 83.7916C180.772 83.5896 180.394 83.8218 180.081 83.6404C177.888 83.4295 175.697 83.2199 173.518 82.8846C171.501 82.5734 169.468 82.3645 167.438 82.1508C165.187 81.9138 162.931 81.7186 160.677 81.5139C159.768 81.4314 158.852 81.4074 157.945 81.3648C156.176 81.2823 154.404 81.1806 152.631 81.1284C147.914 80.9875 143.197 80.9518 138.48 81.0178C136.959 81.0391 135.437 81.1229 133.914 81.1648C131.637 81.2274 129.373 80.9278 127.097 80.9786C126.544 80.991 126.001 80.8481 125.545 80.4942C125.49 80.4351 125.458 80.365 125.449 80.2853C125.565 79.8304 125.695 79.3811 125.885 78.9503C125.929 78.8816 125.984 78.8238 126.047 78.7737C126.263 78.6555 126.505 78.6218 126.74 78.562C126.822 78.5511 126.902 78.5552 126.983 78.5731C127.343 78.5944 127.705 78.6789 128.056 78.5208L128.055 78.5222C128.21 78.3876 128.386 78.3161 128.595 78.3394C129.306 78.4872 130.016 78.4989 130.729 78.3566C131.171 78.3525 131.615 78.3484 132.059 78.3442C133.051 78.1306 134.071 78.424 135.063 78.1917C136.618 78.1876 138.173 78.1835 139.729 78.1793C141.107 78.0234 142.491 78.1422 143.873 78.1106C145.174 78.0804 146.476 78.1498 147.778 78.0763C148.001 77.9959 148.199 78.0749 148.391 78.1787C149.28 78.1828 150.167 78.1869 151.055 78.1917C152.197 78.3525 153.341 78.2749 154.486 78.2302C154.698 78.1677 154.882 78.2446 155.062 78.3449C155.505 78.3484 155.948 78.3525 156.392 78.3566C156.881 78.5098 157.375 78.4514 157.87 78.3813C158.065 78.3415 158.234 78.4157 158.396 78.5098C158.84 78.5133 159.283 78.5174 159.726 78.5208C160.06 78.6631 160.397 78.6218 160.735 78.5359C160.922 78.5126 161.08 78.5827 161.233 78.6782C161.622 78.7311 162.011 78.784 162.401 78.8369C162.625 78.6658 162.847 78.7029 163.068 78.8451C163.177 78.8465 163.286 78.8486 163.396 78.85C163.678 79.0066 163.965 78.9345 164.25 78.863C164.431 78.8465 164.586 78.9139 164.734 79.008C164.954 79.0107 165.174 79.0135 165.395 79.0155C165.729 79.1571 166.066 79.1166 166.404 79.0307C166.592 79.008 166.751 79.0774 166.902 79.1743C167.18 79.2265 167.458 79.2794 167.737 79.3316C167.961 79.1612 168.182 79.1969 168.402 79.3405C168.681 79.3921 168.959 79.4443 169.237 79.4965C169.461 79.3254 169.683 79.3625 169.903 79.5048C170.181 79.557 170.46 79.6092 170.739 79.6614C170.963 79.491 171.185 79.5261 171.405 79.6724C171.877 79.95 172.398 79.8023 172.899 79.8401C173.15 80.0331 173.48 79.8181 173.735 79.9933C174.067 79.9967 174.399 80.0015 174.732 80.0057C174.984 80.1981 175.313 79.9823 175.569 80.1582C177.073 80.2915 178.548 80.6735 180.068 80.6646C180.379 80.868 180.758 80.6323 181.071 80.8171Z" fill="#BDE8D5"/>
<path d="M148.552 125.827C149.887 124.765 151.412 123.969 152.727 122.877C155.377 120.676 157.915 118.375 160.202 115.786C163.187 112.406 165.971 108.868 168.819 105.38C171.581 101.999 174.452 98.7032 176.741 94.9619C177.785 93.2558 179.017 91.661 180.204 90.045C180.682 89.3943 180.995 88.6673 181.365 87.9672C181.698 87.3357 182.171 86.8657 182.743 86.4672C184.012 87.1117 184.357 88.5148 183.666 89.9811C182.956 91.4893 181.779 92.6615 180.821 93.9917C180.047 95.0677 179.083 95.9836 178.159 96.9036C174.633 100.413 171.572 104.258 168.865 108.417C166.242 112.447 163.236 116.216 160.422 120.117C159.438 121.481 158.621 122.964 157.624 124.318C156.012 126.51 153.931 128.107 151.235 128.823C151.159 128.866 151.089 128.857 151.026 128.798C151.01 127.578 150.307 126.839 149.266 126.332C149.003 126.203 148.662 126.173 148.552 125.827Z" fill="#DF3182"/>
<path d="M117.887 92.8655C117.99 92.9184 118.094 92.9714 118.197 93.0243C119.345 93.9601 120.155 95.1859 121.093 96.3045C122.315 97.7605 123.637 99.1361 124.65 100.756C124.685 100.829 124.711 100.905 124.73 100.984C125.115 103.361 126.2 105.448 127.473 107.457C128.384 108.896 129.28 110.347 130.115 111.83C130.82 113.082 131.729 114.188 132.554 115.354C133.42 116.578 134.685 116.701 136.047 116.475C136.655 116.778 137.016 117.266 137.154 117.922C136.087 119.596 136.264 121.095 137.689 122.618C138.468 123.451 140.034 123.781 140.7 122.305C140.778 122.13 140.875 121.961 141.043 121.848C141.868 122.097 142.607 122.454 142.948 123.316C142.706 123.637 142.331 123.663 141.982 123.721C140.59 123.955 139.196 124.192 137.772 124.066C137.548 124.046 137.33 124.048 137.135 124.184C136.862 124.314 136.725 124.134 136.599 123.945C135.105 121.721 133.225 119.808 131.527 117.748C130.408 116.391 129.274 115.047 128.309 113.557C127.083 111.665 125.661 109.898 124.249 108.13C122.062 105.393 120.041 102.532 117.94 99.7311C116.997 98.473 116.025 97.2376 115.03 96.02C114.153 94.9454 113.388 93.8041 112.835 92.5337C112.629 92.061 112.376 91.5745 112.689 91.044C112.727 90.9355 112.544 90.8118 112.713 90.7129C112.801 90.662 112.88 90.673 112.95 90.7451C113.628 92.399 115.203 92.3688 116.611 92.6292C117.036 92.7082 117.499 92.5797 117.887 92.8655Z" fill="#B584AB"/>
<path d="M147.06 206.139C147.783 206.14 148.506 206.14 149.229 206.14C149.884 205.92 150.581 206.203 151.237 205.979C151.345 205.977 151.455 205.975 151.564 205.973C151.876 205.773 152.26 206.019 152.571 205.813C153.513 205.791 154.425 205.275 155.39 205.649C155.67 205.813 155.893 206.033 156.061 206.31L156.059 206.307C156.195 206.691 156.195 207.073 156.059 207.457L156.061 207.454C155.896 207.732 155.668 207.946 155.395 208.118C155.118 208.229 154.841 208.34 154.564 208.452C154.329 208.581 154.047 208.521 153.835 208.634C154.06 208.626 154.306 208.412 154.564 208.615C156.344 208.612 158.122 208.61 159.903 208.608C160.388 208.406 160.923 208.669 161.407 208.451C161.516 208.449 161.625 208.448 161.736 208.446C162.045 208.246 162.43 208.495 162.739 208.285C162.793 208.288 162.847 208.287 162.901 208.282C163.213 208.081 163.597 208.329 163.908 208.121C164.017 208.12 164.126 208.118 164.236 208.116C164.663 207.904 165.149 208.177 165.575 207.957C166.164 207.883 166.654 208.294 167.23 208.286C167.804 208.45 167.804 208.45 167.563 208.775C165.704 210.557 163.261 210.797 160.899 211.253C160.645 211.443 160.312 211.219 160.059 211.413C159.393 211.472 158.728 211.531 158.061 211.59C157.806 211.766 157.478 211.551 157.224 211.742C156.836 211.746 156.449 211.75 156.062 211.755C155.632 211.953 155.15 211.692 154.723 211.908C154.336 211.911 153.948 211.915 153.56 211.919C153.017 212.124 152.43 211.85 151.889 212.073C151.558 212.076 151.227 212.079 150.895 212.081C150.736 212.21 150.559 212.28 150.35 212.254C149.987 212.085 149.579 212.227 149.211 212.095C149.242 211.657 149.627 211.726 149.893 211.65C150.341 211.523 150.795 211.421 151.283 211.026C150.192 210.519 149.115 210.451 148.063 210.356C144.223 210.008 140.372 210.023 136.52 209.983C134.06 209.956 131.589 209.816 129.167 209.292C128.021 209.045 126.906 208.709 125.992 207.937C125.663 207.659 125.265 207.402 125.312 206.879C125.822 206.478 126.185 206.81 126.552 207.121C126.662 207.129 126.771 207.137 126.881 207.145C127.632 207.126 128.339 207.349 129.051 207.541C129.365 207.867 129.713 207.656 130.05 207.605C130.246 207.594 130.41 207.665 130.551 207.793L130.551 207.791C130.851 207.992 131.137 207.793 131.429 207.756C131.665 207.74 131.877 207.793 132.053 207.957L132.052 207.956C132.549 208.117 133.043 208.057 133.537 207.935C133.738 207.919 133.907 207.993 134.055 208.121C134.109 208.125 134.162 208.126 134.215 208.122C134.819 208.273 135.422 208.238 136.023 208.102C136.23 208.081 136.403 208.155 136.556 208.283C136.721 208.285 136.884 208.286 137.048 208.287C137.659 208.435 138.266 208.411 138.872 208.256C139.131 208.215 139.359 208.28 139.558 208.45C139.666 208.45 139.775 208.451 139.883 208.452C141.098 208.628 142.319 208.507 143.537 208.51C143.669 208.51 143.797 208.433 143.866 208.305C143.681 207.837 143.163 207.501 143.305 206.908C143.271 206.67 143.377 206.489 143.536 206.326C144.022 205.949 144.608 206.008 145.171 205.96C145.783 206.206 146.446 205.922 147.06 206.139Z" fill="#BDE8D5"/>
<path d="M112.689 91.044C112.787 92.601 113.602 93.8708 114.526 95.0223C117.78 99.0756 120.759 103.33 123.947 107.429C125.33 109.207 126.804 110.934 128.038 112.804C129.59 115.155 131.423 117.26 133.22 119.406C134.208 120.587 135.169 121.792 136.217 122.917C136.585 123.313 136.569 123.908 137.054 124.195C137.466 124.368 137.669 124.749 137.879 125.089C138.555 126.186 139.493 127.026 140.5 127.805C140.567 127.845 140.631 127.889 140.693 127.934C141.002 128.198 141.385 128.293 141.767 128.394C143.209 128.879 144.689 129.2 146.2 129.354C147.503 129.486 148.78 129.268 150.037 128.93C150.376 128.84 150.702 128.645 151.076 128.767C151.129 128.785 151.182 128.805 151.235 128.823C151.229 128.873 151.228 128.923 151.23 128.974C151.286 129.035 151.31 129.106 151.306 129.187C151.238 129.54 151.104 129.87 150.976 130.204C149.908 131.847 148.403 132.819 146.442 133.092C145.964 132.969 145.487 132.96 145.01 133.1C142.799 132.905 140.9 132.03 139.301 130.512C139.117 130.267 139.028 129.947 138.723 129.797C138.617 129.74 138.511 129.683 138.404 129.627C137.461 129.016 136.681 128.243 136.061 127.311C135.954 127.204 135.847 127.096 135.74 126.988C135.431 126.756 135.138 126.504 134.912 126.192C133.422 124.132 131.968 122.05 130.775 119.801C130.713 119.684 130.658 119.553 130.716 119.412C130.667 119.354 130.616 119.297 130.567 119.239C129.676 118.478 129.06 117.498 128.415 116.548C126.487 113.711 124.74 110.756 122.698 107.996C122.241 107.377 121.804 106.745 121.351 106.124C121.195 105.91 120.97 105.712 121.044 105.397C120.772 105.061 120.5 104.724 120.228 104.388C119.54 103.809 119.19 102.992 118.701 102.273C118.055 101.322 117.26 100.475 116.72 99.4521L116.722 99.4535C116.546 99.3277 116.509 99.1113 116.387 98.9512C116.385 98.7197 116.273 98.5596 116.063 98.464C115.879 98.3424 115.843 98.1233 115.72 97.9611C115.72 97.9103 115.717 97.8601 115.711 97.8099C115.15 97.3757 114.914 96.7188 114.552 96.1492C114.572 95.8634 114.308 95.7246 114.208 95.5013C113.657 95.1481 113.572 94.4926 113.219 94.0109H113.222C112.756 93.6179 112.585 93.062 112.384 92.5233C112.548 92.0424 112.041 91.4267 112.689 91.044Z" fill="#BDE8D5"/>
<path d="M125.533 80.3252C125.537 80.3815 125.541 80.4379 125.545 80.4942C125.325 80.8343 125.101 81.1731 124.884 81.5153C124.611 81.9461 124.414 82.4648 123.776 82.4772C123.096 82.4916 123.168 81.8327 122.888 81.4891C123.324 80.7752 123.762 80.062 124.199 79.3488C124.923 77.3672 125.114 75.3382 124.795 73.2542C124.597 71.9713 124.559 70.6604 124.049 69.438C123.885 69.0718 123.72 68.7056 123.555 68.3393C121.583 64.5135 118.518 61.8517 114.593 60.1023C113.45 59.5932 112.251 59.286 111.029 59.0229C109.44 58.6814 107.889 58.7178 106.356 59.2661C105.865 59.4413 105.343 59.5197 104.869 59.7457C103.516 60.3552 102.241 61.0938 101.084 62.0228C100.443 62.4172 100.004 63.0315 99.4341 63.5035C97.2961 65.694 96.2045 68.3826 95.6326 71.3179C95.5631 71.6739 95.5993 72.0298 95.6298 72.3857C95.6264 72.6509 95.4596 72.846 95.3401 73.0618C94.7036 74.5322 94.7446 75.96 95.6125 77.3363C95.7514 77.5623 95.8828 77.7939 95.9995 78.0323C96.1016 78.1848 96.1128 78.3745 96.2086 78.5298C96.3163 78.6926 96.424 78.8562 96.5324 79.0197C96.4782 79.1482 96.513 79.2877 96.4838 79.4196C96.3942 79.8236 96.299 80.229 95.7994 80.3266C95.3165 80.4214 95.0316 80.139 94.7898 79.7872C94.7286 79.6978 94.6849 79.5982 94.6279 79.5055C94.5536 79.3516 94.4827 79.1956 94.5244 79.0176C94.3305 78.2391 93.9164 77.5225 93.8698 76.7042C93.799 76.3709 93.6558 76.0555 93.619 75.7133C93.653 74.3838 93.5078 73.0549 93.6253 71.7261C93.6489 71.4602 93.544 71.1791 93.7163 70.9297C93.6141 70.5278 93.8803 70.1677 93.8518 69.7747C93.7941 69.5693 93.9074 69.425 94.031 69.2848C94.4201 68.2404 94.6981 67.1554 95.1921 66.1481C95.1789 65.8376 95.3582 65.6521 95.6132 65.516C95.7313 65.3188 95.9036 65.1457 95.8939 64.8928C96.1781 64.2442 96.4602 63.5949 97.1147 63.208C97.205 63.1015 97.2954 62.9943 97.3857 62.8871C97.4447 62.7655 97.501 62.6412 97.6136 62.5553C97.813 62.4213 97.9728 62.2516 98.093 62.0448C98.3362 61.6744 98.6572 61.3941 99.0665 61.2154C99.475 61.0464 99.7968 60.7729 100.056 60.4225C100.168 60.2329 100.311 60.0858 100.551 60.0721C100.969 59.8405 101.406 59.6351 101.719 59.2551C101.878 59.0236 102.087 58.8848 102.384 58.9164C103.215 58.6319 104.047 58.3481 104.879 58.0644C105.146 57.894 105.476 58.0905 105.742 57.9187C105.844 57.9098 105.946 57.9001 106.049 57.8912C106.375 57.7277 106.752 57.9324 107.077 57.7538C107.455 57.7449 107.833 57.7359 108.211 57.7263C108.343 57.6342 108.488 57.5965 108.648 57.6329C109.665 57.7359 110.69 57.5724 111.706 57.7208C112.633 57.8094 113.482 58.2025 114.383 58.3921C114.832 58.3509 115.169 58.5137 115.371 58.9239C116.48 59.6949 117.59 60.4665 118.7 61.2381C119.04 61.247 119.24 61.4435 119.37 61.7307C119.814 62.0606 120.258 62.3897 120.702 62.7202C121.046 62.7381 121.262 62.9174 121.364 63.2383C121.606 63.5406 121.859 63.8306 122.217 64.0085C122.488 64.1803 122.712 64.3995 122.883 64.6688C122.97 64.91 123.155 65.068 123.351 65.2178C123.673 65.3112 123.732 65.6156 123.872 65.8547C123.976 65.9729 124.078 66.0918 124.182 66.2107C124.545 66.4154 124.733 66.7219 124.733 67.1369C125.009 67.633 125.285 68.1291 125.561 68.6252C125.684 68.7674 125.843 68.898 125.731 69.1192C125.719 69.2951 125.671 69.4765 125.813 69.6284C126.125 69.9458 125.843 70.4302 126.137 70.7531C126.144 71.1558 126.069 71.5694 126.308 71.9391C126.36 72.3781 126.142 72.8481 126.465 73.2563C126.5 73.3463 126.506 73.4383 126.486 73.5325C126.447 74.4807 126.464 75.4289 126.477 76.3764C126.503 76.465 126.503 76.5557 126.477 76.645C126.171 77.0353 126.324 77.4806 126.325 77.9073C126.348 77.9911 126.356 78.0756 126.348 78.1622C126.3 78.4116 126.239 78.6562 126.063 78.8555C126.025 78.9077 125.986 78.9606 125.949 79.0128C125.657 79.4031 125.514 79.8394 125.533 80.3252Z" fill="#F78E3D"/>
<path d="M101.393 79.6779C101.33 79.6168 101.266 79.5556 101.202 79.4952C100.9 78.942 100.48 78.4803 100.046 78.0282C100.046 77.9664 100.046 77.9052 100.046 77.8434C100.122 77.6695 100.045 77.473 100.125 77.2985C100.407 76.3785 100.924 75.6206 101.713 75.051L101.704 75.0572C101.938 74.8868 102.215 74.794 102.462 74.6456C102.672 74.5789 102.88 74.537 103.076 74.6834C103.97 77.1659 105.65 79.2753 106.515 81.775C107.214 83.793 108.037 85.7691 108.602 87.8332C108.842 88.712 108.756 89.5613 108.44 90.4105C108.019 91.5429 108.087 91.6714 109.187 92.14C109.26 92.2101 109.267 92.2856 109.209 92.3674C108.877 92.5302 108.545 92.6931 108.213 92.8559C107.214 93.014 106.214 92.9734 105.213 92.8738C104.74 92.8484 104.317 92.7467 104.194 92.2018C104.11 92.0479 104.062 91.8878 104.113 91.7126C104.341 91.2618 104.723 91.033 105.221 91.0179C105.77 91.0007 106.088 90.7603 106.136 90.2064C106.188 89.474 106.332 88.734 105.927 88.0462C105.685 87.6449 105.446 87.2436 105.379 86.7695C105.378 86.6624 105.377 86.5552 105.376 86.4473C105.291 85.7451 104.948 85.1604 104.52 84.6148C104.254 84.2657 103.935 83.9462 103.878 83.4811C103.679 83.1547 103.495 82.8201 103.297 82.4923C102.723 81.5139 102.328 80.4173 101.393 79.6779Z" fill="#F78E3D"/>
<path d="M108.216 70.4474C108.27 70.3361 108.324 70.2241 108.378 70.1127C108.724 69.6874 108.945 69.1694 109.352 68.7914C109.606 68.5551 109.84 68.2308 110.275 68.4341C111.608 69.8138 113.067 71.0802 114.094 72.7292C115.793 75.4529 117.139 78.312 117.665 81.5001C117.692 81.6678 117.679 81.8279 117.557 81.9619C116.642 81.9708 115.729 81.9955 114.836 81.7207C114.508 81.619 114.207 81.5118 114.039 81.1902C113.969 80.209 113.655 79.3069 113.132 78.4741C112.865 77.9677 112.546 77.4916 112.202 77.0326C111.177 75.7477 110.126 74.4841 108.912 73.3655C108.504 72.989 108.169 72.5602 107.878 72.093C107.679 71.7309 107.896 71.4299 108.025 71.1166L108.046 71.0932C108.156 70.8919 108.415 70.7284 108.216 70.4474Z" fill="#F78E3D"/>
<path d="M106.364 90.2312C106.28 90.9004 106.01 91.3498 105.214 91.2199C104.772 91.1478 104.528 91.4824 104.244 91.727C104.028 91.7614 103.813 91.7511 103.599 91.7044C102.928 91.4824 102.162 91.6535 101.543 91.2186C101.097 91.0537 100.651 90.8887 100.206 90.7238C99.9913 90.8111 99.8516 90.6778 99.7078 90.5589C99.5459 90.493 99.3847 90.427 99.2228 90.3611C98.651 90.0766 98.0409 89.843 97.7067 89.2431C97.1897 88.9848 97.0591 88.3616 96.5755 88.0723C96.3386 87.906 96.3233 87.6257 96.2184 87.3921C96.1614 87.2931 96.1044 87.1935 96.0467 87.0946C95.5583 86.3985 95.1997 85.6558 95.2053 84.7838C95.2018 84.7282 95.1983 84.6718 95.1949 84.6162C95.0337 84.2905 94.8509 83.9717 94.8683 83.591C94.7801 83.097 94.8044 82.6043 94.8725 82.111C94.8753 81.8946 94.8933 81.6809 95.0358 81.5002C95.2519 81.2679 95.4707 81.0363 95.7042 80.8192C95.7598 80.7677 95.8209 80.721 95.8828 80.677C96.374 80.2544 96.736 79.6209 97.5274 79.6862C98.2744 79.5783 98.6802 80.0119 99.0012 80.587C99.1721 80.8914 99.3514 81.191 99.5265 81.4933C99.4577 81.6204 99.5153 81.8286 99.2902 81.8561C98.9636 81.742 98.8976 81.4163 98.7274 81.1752C98.5822 80.969 98.4314 80.7457 98.1354 80.8227C97.8019 80.9093 97.7748 81.202 97.7602 81.4816C97.7477 81.731 97.804 81.9708 97.8915 82.2044C98.7086 84.3839 99.8648 86.3497 101.518 88.0283C102.857 89.3881 104.471 90.0951 106.364 90.2312Z" fill="#E7CE8F"/>
<path d="M138.723 212.24C138.615 212.24 138.507 212.239 138.398 212.238C137.74 212.098 137.084 212.108 136.429 212.255C136.221 212.282 136.046 212.207 135.889 212.078C135.724 212.077 135.561 212.075 135.395 212.073C134.844 211.922 134.296 211.963 133.748 212.093C133.543 212.112 133.372 212.038 133.221 211.909L133.142 211.905L133.063 211.908C132.616 211.737 132.175 211.827 131.733 211.933C131.534 211.944 131.367 211.871 131.221 211.744L131.141 211.739L131.062 211.742C130.767 211.587 130.474 211.656 130.181 211.75C129.945 211.792 129.734 211.743 129.556 211.577L129.556 211.579C129.265 211.379 128.984 211.574 128.698 211.6C128.513 211.607 128.356 211.537 128.22 211.421C127.662 211.312 127.106 211.204 126.549 211.096C125.838 211.279 125.274 210.949 124.722 210.58C124.386 210.421 124.051 210.262 123.715 210.103C122.721 209.849 122.057 209.24 121.716 208.283C121.666 208.227 121.615 208.17 121.564 208.113C121.275 207.826 121.153 207.481 121.2 207.078C121.354 206.533 121.353 205.986 121.216 205.437C121.134 204.677 121.535 204.145 122.066 203.673C122.28 203.56 122.442 203.397 122.556 203.186C123.508 202.264 124.505 201.415 125.888 201.201C126.151 201.171 126.386 201.087 126.555 200.872C127.288 200.293 128.103 199.96 129.06 200.054C129.113 200.051 129.167 200.046 129.22 200.04C129.439 199.866 129.661 199.859 129.887 200.028C130.054 199.978 130.22 199.928 130.387 199.878C130.529 199.75 130.693 199.684 130.885 199.688C131.145 199.761 131.405 199.806 131.672 199.721C132.203 199.813 132.717 199.938 133.022 200.444C133.205 200.813 133.224 201.183 133.022 201.552C132.471 202.488 131.572 202.845 130.55 202.995C128.567 203.195 127.087 204.392 125.547 205.468C125.476 205.578 125.426 205.714 125.253 205.687C125.176 205.63 125.133 205.553 125.124 205.46C125.251 204.809 125.742 204.37 126.08 203.841C126.223 203.619 126.521 203.379 126.311 203.118C126.048 202.789 125.629 202.873 125.315 203.051C123.647 203.994 122.505 205.867 123.898 207.996C124.977 209.644 126.681 210.389 128.534 210.819C130.486 211.274 132.489 211.36 134.48 211.518C137.446 211.754 140.422 211.572 143.383 211.724C144.868 211.799 146.378 211.667 147.849 212.001C147.933 212.069 147.946 212.148 147.887 212.238C147.611 212.24 147.336 212.242 147.061 212.243C146.838 212.425 146.588 212.485 146.307 212.418C145.605 212.218 144.886 212.32 144.176 212.33C142.559 212.354 140.938 212.21 139.323 212.409C139.094 212.455 138.898 212.385 138.723 212.24Z" fill="#BDE8D5"/>
<path d="M109.25 92.2334C108.141 92.366 107.612 91.5298 108.136 90.5418C108.673 89.5317 108.636 88.4674 108.286 87.4312C107.391 84.7845 106.52 82.1254 105.33 79.5866C104.69 78.2213 103.721 77.0257 103.213 75.5883C103.11 75.2977 103.03 75.0173 103.036 74.7123C103.021 74.4759 103.197 74.4395 103.37 74.3996C104.292 74.401 104.714 75.1252 105.156 75.7161C106.696 77.7761 107.938 80.0112 108.766 82.4422C109.28 83.9531 109.804 85.4441 110.78 86.7352C110.967 86.9819 111.057 87.2691 111.184 87.5419C111.331 88.2153 111.39 88.8879 111.181 89.5592L111.194 89.5441C111.067 89.7976 111.123 90.0704 111.132 90.3315C111.154 90.9561 110.907 91.4117 110.342 91.6954C110.244 91.7504 110.146 91.8054 110.047 91.8597C109.781 91.9847 109.638 92.3626 109.25 92.2334Z" fill="#F25B26"/>
<path d="M117.557 81.9619C116.806 77.6311 114.921 73.8217 112.099 70.4549C111.787 70.0818 111.362 69.7933 110.961 69.5054C110.586 69.2367 110.333 68.9055 110.206 68.4713C110.039 68.3373 109.849 68.2108 110.045 67.9642C110.383 67.5849 110.829 67.8597 111.216 67.7786C111.318 67.6893 111.437 67.6825 111.562 67.7065C112.147 67.9903 112.714 68.3016 113.206 68.7324C115.048 70.4817 116.4 72.5368 117.476 74.8373C118.379 76.766 119.208 78.683 119.511 80.7972C119.566 81.1786 119.653 81.553 119.479 81.9255C119.393 82.0952 119.153 82.0045 119.062 82.1659L119.065 82.1646C118.565 82.4538 118.136 82.1357 117.685 82.0031C117.639 81.999 117.597 81.9853 117.557 81.9619Z" fill="#F25B26"/>
<path d="M115.898 90.3411C115.625 90.3061 115.351 90.2704 115.078 90.2346C114.605 89.9275 114.114 89.6375 113.897 89.0741C113.796 88.9656 113.748 88.8302 113.7 88.6942C113.329 87.5797 113.271 86.4295 113.303 85.2689C113.318 84.8684 113.279 84.4609 113.406 84.0734C113.493 83.8095 113.493 83.4632 113.898 83.4316C115.633 84.026 117.448 83.905 119.235 83.96C119.99 83.9833 120.285 84.1744 120.219 84.9336C120.163 85.5857 120.203 86.246 120.201 86.9022C120.127 87.5694 120.041 88.2338 119.725 88.8419C119.578 89.125 119.482 89.4665 119.05 89.4314C118.785 89.0199 119.111 88.7024 119.239 88.363C119.531 87.5872 119.837 86.8184 119.517 85.9773C119.399 85.6668 119.274 85.3081 118.878 85.3122C118.454 85.3163 118.35 85.7032 118.325 86.0213C118.242 87.1248 117.756 88.0675 117.201 88.9903C117.13 89.1078 117.022 89.2349 117.038 89.362C117.148 90.2566 116.61 90.394 115.898 90.3411Z" fill="#F78E3D"/>
<path d="M113.898 83.4316C113.488 83.9909 113.585 84.6464 113.542 85.2751C113.131 85.3699 112.94 85.0524 112.751 84.8113C111.973 83.8163 110.998 83.0124 110.136 82.1C109.727 81.6664 109.187 81.4637 108.662 81.2287C107.958 80.545 107.589 79.6401 107.107 78.8197C106.411 77.6351 105.666 76.4877 104.872 75.3684C104.726 75.1629 104.584 74.9616 104.695 74.6923C105.218 74.3948 105.642 74.7053 106.088 74.9087C106.779 75.2241 107.311 75.804 108.043 76.05C109.296 76.7392 109.926 78.0117 110.865 78.9942C110.977 79.111 111.097 79.221 111.213 79.3337C111.913 79.906 112.102 80.8302 112.712 81.4644C112.99 81.4733 113.268 81.4829 113.545 81.4919C113.173 81.6774 112.946 81.8863 113.303 82.3047C113.581 82.6325 113.775 83.0172 113.898 83.4316Z" fill="#E7CE8F"/>
<path d="M108.711 81.1676C109.337 81.1649 109.807 81.4878 110.214 81.9049C111.127 82.8421 112.138 83.6858 112.935 84.733C113.097 84.9446 113.338 85.0965 113.542 85.2751C113.472 86.4459 113.667 87.592 113.874 88.7367C113.675 88.8213 113.538 88.6866 113.47 88.5588C113.024 87.7377 112.301 87.1461 111.712 86.4439C111.489 86.2213 111.264 85.998 111.041 85.7753C110.89 85.6572 110.778 85.5101 110.697 85.3383C110.491 84.9439 110.332 84.522 110.012 84.1929C109.499 83.4282 109.225 82.5411 108.725 81.7688C108.611 81.5929 108.538 81.371 108.711 81.1676Z" fill="#D5AA59"/>
<path d="M143.562 152.71C143.563 152.547 143.563 152.385 143.563 152.222C143.418 152.052 143.346 151.86 143.389 151.636C143.577 150.744 143.473 149.84 143.47 148.944C143.463 147.499 143.564 146.052 143.407 144.609C143.394 144.505 143.403 144.403 143.432 144.302C143.752 143.896 143.6 143.417 143.651 142.969C143.696 142.58 143.482 142.161 143.79 141.804C144.103 141.936 144.117 142.228 144.151 142.494C144.313 143.744 144.461 144.993 144.497 146.256C144.6 149.791 144.386 153.323 144.281 156.853C144.217 159.015 144.211 161.178 144.149 163.34C144.138 163.739 144.29 164.243 143.711 164.439C143.573 164.01 143.65 163.569 143.65 163.134C143.642 159.955 143.648 156.776 143.641 153.597C143.641 153.301 143.719 152.993 143.562 152.71Z" fill="#BAE7D4"/>
<path d="M108.711 81.1676C109.203 82.1515 109.695 83.1362 110.187 84.1208C110.426 84.6251 110.663 85.1308 110.788 85.6784C110.806 85.833 110.768 85.9959 110.865 86.1381C110.876 86.3552 110.815 86.5847 110.977 86.7757C111.23 86.9688 111.133 87.1969 111.044 87.4244C109.549 85.7272 109.006 83.5841 108.192 81.5586C107.237 79.1846 106.037 76.933 104.269 75.0256C104.021 74.7562 103.75 74.5288 103.35 74.5377C103.422 74.1509 103.741 74.2677 103.986 74.2326C104.294 74.3055 104.595 74.3893 104.692 74.7466C106.107 76.8409 107.458 78.9744 108.711 81.1676Z" fill="#F78E3D"/>
<path d="M113.215 78.3491C113.722 79.23 114.458 80.0469 114.039 81.1902C113.991 81.193 113.942 81.1944 113.894 81.1944C113.607 80.3046 113.32 79.4148 113.034 78.5257C112.981 78.3525 113.061 78.3134 113.215 78.3491Z" fill="#F36924"/>
<path d="M119.046 89.4005C119.718 88.9834 119.818 88.2626 120.018 87.5968C120.087 87.3687 120.025 87.1048 120.201 86.9028C120.265 87.1289 120.129 87.4072 120.38 87.5858C120.195 88.0599 120.045 88.5519 119.815 89.004C119.585 89.4547 119.397 90.0251 118.676 89.8739C118.659 89.6087 118.804 89.4685 119.046 89.4005Z" fill="#FDDED6"/>
<path d="M117.685 82.0031C118.145 82.0567 118.605 82.1103 119.065 82.1646C118.53 82.7424 118.1 82.4394 117.685 82.0031Z" fill="#F78D47"/>
<path d="M119.062 82.166C119.098 82.0244 119.211 81.9818 119.338 81.9557C119.552 81.9117 119.575 81.5352 119.881 81.652C119.932 81.7722 119.984 81.8932 120.035 82.0134C119.711 82.0643 119.387 82.1151 119.062 82.166Z" fill="#F78D47"/>
<path d="M142.895 123.205C142.284 122.766 141.674 122.327 141.062 121.889C140.998 121.84 140.95 121.778 140.917 121.706C140.665 120.604 140.083 119.667 139.34 118.84C138.807 118.247 138.131 117.871 137.269 118.033C137.188 118.018 137.12 117.983 137.064 117.925C136.805 117.423 136.473 116.974 136.055 116.589C136.008 116.516 136 116.439 136.029 116.358C137.301 115.076 136.96 113.679 136.367 112.233C135.433 109.959 134.148 107.873 132.898 105.767C131.827 103.964 130.579 102.282 129.37 100.573C128.279 99.0309 127.195 99.2151 125.608 99.6747C125.039 99.8396 124.973 100.486 124.543 100.786C124.476 100.74 124.39 100.706 124.344 100.644C122.479 98.0861 120.393 95.7074 118.307 93.3273C118.241 93.2517 118.233 93.1266 118.197 93.0243C121.477 93.2407 124.756 93.4633 128.036 93.6701C129.057 93.734 130.083 93.7849 131.102 93.8158C133.76 93.8962 136.417 94.1456 139.08 94.0151C140.196 93.9601 141.284 94.1923 142.393 94.2006C146.273 94.2301 150.135 93.8639 154.001 93.6454C157.387 93.4544 160.782 93.2551 164.138 92.6999C166.451 92.3179 168.771 91.9799 171.088 91.6226C171.251 91.5971 171.414 91.5669 171.579 91.5477C172.108 91.4851 172.34 91.6198 172.009 92.1606C171.779 92.535 171.581 92.9294 171.351 93.3039C171.01 93.8591 170.852 94.4411 170.902 95.1021C170.966 95.928 170.52 96.4261 169.726 96.6357C169.501 96.051 169.994 95.6772 170.162 95.2099C170.299 94.8327 170.629 94.4617 170.254 94.0755C169.855 93.6639 169.341 93.5712 168.799 93.7622C168.236 93.9615 167.869 94.3428 167.794 94.9543C167.72 95.5652 167.982 96.0008 168.477 96.3505C168.801 96.5807 169.231 96.5415 169.533 96.8013C166.847 101.208 163.958 105.481 160.875 109.626C160.567 110.042 160.232 110.438 159.91 110.844C159.574 110.754 159.481 110.437 159.302 110.203C158.607 109.3 157.473 108.966 156.408 109.36C156.119 109.467 155.863 109.629 155.651 109.853C154.591 110.971 155.041 113.343 156.439 114.006C156.613 114.088 156.808 114.134 156.915 114.314C155.124 116.411 152.878 117.954 150.59 119.454C148.414 120.881 146.153 122.14 143.701 123.045C143.497 123.12 143.279 123.162 143.067 123.22C143.005 123.275 142.947 123.271 142.895 123.205Z" fill="#F48AC7"/>
<path d="M142.895 123.205C142.952 123.209 143.009 123.214 143.067 123.22C144.689 124.282 146.473 125.035 148.232 125.836C148.163 126.453 147.608 126.558 147.184 126.739C145.777 127.338 144.279 127.584 142.763 127.706C142.02 127.766 141.283 127.833 140.555 127.99C139.809 127.667 139.281 127.048 138.744 126.501C138.081 125.829 137.609 124.973 137.054 124.195C136.977 123.842 136.963 123.715 137.471 123.78C139.314 124.015 141.128 123.776 142.895 123.205Z" fill="#AE518B"/>
<path d="M140.555 127.99C140.392 127.516 140.766 127.674 140.97 127.653C142.585 127.485 144.214 127.415 145.789 126.983C146.667 126.743 147.551 126.496 148.231 125.836C148.338 125.834 148.446 125.831 148.553 125.827C149.607 126.239 150.636 126.671 151.084 127.843C151.209 128.171 151.282 128.46 151.076 128.767C148.53 129.887 145.929 129.757 143.313 129.07C142.717 128.913 142.096 128.814 141.553 128.494C141.228 128.308 140.857 128.214 140.553 127.988L140.555 127.99Z" fill="#A63170"/>
<path d="M156.915 114.314C155.553 114.072 154.927 113.314 154.889 111.956C154.859 110.871 154.915 109.841 156.057 109.278C157.254 108.687 159.172 108.872 159.91 110.844C159.904 110.896 159.898 110.947 159.891 110.998C159.769 111.588 159.316 111.973 158.949 112.392C158.361 113.062 157.79 113.754 157.062 114.292C157.014 114.298 156.964 114.306 156.915 114.314Z" fill="#F9BADD"/>
<path d="M119.046 89.4005C118.923 89.5585 118.8 89.7159 118.676 89.8739C118.618 89.9357 118.561 89.9969 118.504 90.0587C117.697 90.7128 116.768 90.2594 115.898 90.3418C116.474 90.2635 117.015 90.1824 116.774 89.3565C116.731 89.2081 116.965 88.9807 117.07 88.789C117.544 87.9266 118.07 87.0973 118.088 86.0502C118.094 85.6152 118.19 85.025 118.791 84.9892C119.333 84.9576 119.555 85.4118 119.732 85.8791C120.088 86.8163 119.757 87.6511 119.417 88.4949C119.295 88.7979 119.169 89.0988 119.046 89.4005Z" fill="#F25A27"/>
<path d="M169.533 96.8013C168.556 96.8075 167.705 96.2502 167.574 95.5178C167.403 94.5572 167.886 93.8055 168.85 93.5121C169.5 93.3142 170.049 93.5258 170.502 93.9615C170.96 94.4026 170.564 94.8169 170.38 95.2251C170.166 95.6971 169.944 96.1657 169.726 96.6357C169.662 96.6913 169.598 96.7463 169.533 96.8013Z" fill="#F9BADD"/>
<path d="M112.878 90.7293C112.927 90.6702 112.976 90.6118 113.025 90.5527C113.73 90.4799 114.341 90.642 114.804 91.2158C114.92 91.3587 115.058 91.536 115.292 91.4164C116.501 90.7973 117.054 91.67 117.651 92.432C117.751 92.5598 117.809 92.7205 117.886 92.8655C116.516 92.9596 115.199 92.7405 113.94 92.197C113.292 91.9173 112.801 91.5236 112.878 90.7293Z" fill="#AF518C"/>
<path d="M157.062 114.292C157.883 113.091 159.015 112.152 159.891 110.998C160.017 112.034 159.819 112.951 158.965 113.666C158.407 114.135 157.8 114.39 157.062 114.292Z" fill="#F48AC7"/>
<path d="M180.013 89.2885C179.941 89.4726 179.82 89.6355 179.624 89.6595C179.459 89.6801 179.42 89.5228 179.425 89.3785C179.43 89.1834 179.54 89.0906 179.731 89.0844C179.877 89.0796 179.999 89.1112 180.013 89.2885Z" fill="#F177BB"/>
<path d="M106.364 90.2312C106.004 90.4407 105.632 90.4098 105.24 90.3239C102.716 89.7708 101.013 88.1479 99.655 86.1024C98.8657 84.9137 98.159 83.6727 97.7032 82.3109C97.6775 82.2326 97.6164 82.1618 97.6087 82.0842C97.5504 81.5276 97.2801 80.8446 97.9985 80.5684C98.6927 80.3004 98.8414 80.9814 99.0922 81.4184C99.1735 81.5599 99.2652 81.696 99.3521 81.8341C99.9635 82.2834 99.8968 83.1155 100.389 83.6315C100.545 83.96 100.701 84.2891 100.857 84.6175C101.421 85.4489 101.956 86.3023 102.848 86.8506C103.475 87.2354 104.127 87.4594 104.871 87.2608C104.921 87.2588 104.971 87.256 105.021 87.2533C105.452 87.333 105.69 87.6999 106.029 87.9163C106.693 88.6096 106.324 89.4492 106.364 90.2312Z" fill="#D4A95A"/>
<path d="M101.891 64.8454C102.427 65.1649 102.196 65.6858 102.2 66.1186C102.214 68.0281 102.225 68.0611 104.013 68.7605C104.347 68.8918 104.695 69.0093 104.992 69.2016C105.802 69.7238 106.113 70.6439 105.754 71.3282C105.262 72.2682 104.481 72.6049 103.475 72.3039C101.964 71.8518 100.769 70.9469 99.7898 69.7479C99.4883 69.3796 99.2743 68.966 99.382 68.4623C99.3896 68.1964 99.5286 67.9752 99.7085 67.813C100.646 66.9727 101.323 65.9489 101.891 64.8454Z" fill="#F47221"/>
<path d="M109.879 62.0262C109.877 62.2715 109.94 62.5615 109.754 62.7374C109.043 63.4094 109.39 64.0607 109.655 64.8001C110.248 66.4546 109.35 67.7367 107.749 67.6392C107.083 67.5986 106.588 67.2585 106.318 66.6779C105.831 65.6335 105.385 64.5678 105.573 63.3695C106.873 62.7964 108.224 62.3629 109.576 61.9307C109.683 61.8963 109.789 61.9575 109.879 62.0262Z" fill="#F47221"/>
<path d="M115.706 68.6801C116.413 69.2367 117.262 69.5974 117.899 70.2502C118.356 70.9022 118.905 71.4629 119.576 71.904C120.066 72.5142 120.556 73.1243 121.047 73.7345C121.702 74.1591 122.108 74.8008 122.542 75.4165C122.56 75.6233 122.578 75.8295 122.596 76.0356C122.884 77.2957 121.981 79.1214 120.937 79.3928C120.8 79.3124 120.755 79.1784 120.781 79.041C121.042 77.7025 120.437 76.5598 119.907 75.4179C118.714 72.8488 116.963 70.7126 114.67 69.014C114.363 68.7859 114.012 68.5832 113.962 68.1456C113.982 68.0088 114.06 67.9216 114.195 67.8851C114.772 68.0129 115.26 68.3056 115.706 68.6801Z" fill="#E7CE8F"/>
<path d="M96.2086 78.5298C96.0488 78.4569 95.9356 78.3449 95.8939 78.1711C95.9001 77.5664 95.4846 77.0669 95.4575 76.4698C95.3519 76.2019 95.2053 75.9428 95.256 75.6371C95.445 74.5775 95.3568 73.4789 95.707 72.4413C95.7209 72.3541 95.7535 72.2737 95.8015 72.1995C95.9863 71.981 96.2253 71.9088 96.5039 71.9397C96.7979 72.0139 97.0473 72.152 97.1953 72.4296C97.508 73.0735 97.6685 73.7496 97.7192 74.4648C97.754 74.9506 97.8623 75.4316 98.1827 75.8418C98.6829 76.4836 98.833 77.2085 98.3362 77.8818C97.895 78.4789 97.2307 78.6713 96.4845 78.4137C96.3622 78.3711 96.2747 78.4308 96.2086 78.5298Z" fill="#F47221"/>
<path d="M115.697 67.0338C115.802 65.784 116.357 64.8048 117.5 64.1954C118.022 63.9171 118.572 63.8903 119.083 64.2029C119.613 64.5272 119.622 65.0838 119.541 65.6005C119.404 66.4738 119.001 67.2709 118.548 68.0116C118.171 68.6272 117.539 68.9969 116.769 68.7145C116.016 68.4369 115.642 67.8611 115.697 67.0338Z" fill="#F47221"/>
<path d="M97.1953 72.4296C96.9083 72.4386 96.77 72.1823 96.5484 72.0744C96.1593 71.8126 95.987 71.4196 95.8751 70.9888C95.8709 70.145 95.921 69.3143 96.5123 68.6272C97.3092 67.8989 97.7122 66.8813 98.4133 66.0829C98.9963 65.4191 99.5869 64.7691 100.547 64.6613C100.587 64.7678 100.592 64.8825 100.522 64.9698C99.7745 65.9125 99.3645 66.972 99.3687 68.1799C99.3687 68.2864 99.2784 68.3723 99.2131 68.4589C99.2256 68.742 99.1492 69.0093 98.9727 69.2236C98.3973 69.9224 98.1458 70.7373 98.0333 71.6147C97.9728 72.0882 97.7602 72.4454 97.1953 72.4296Z" fill="#FCD059"/>
<path d="M104.869 59.7457C106.806 58.5838 108.86 58.3653 111.073 58.8092C115.41 59.6784 118.92 61.8799 121.756 65.1601C122.548 66.0774 123.375 67.0483 123.555 68.3387C123.151 67.7897 122.751 67.2359 122.341 66.6896C121.254 65.2412 119.828 64.1439 118.368 63.1153C116.863 62.0558 115.487 60.8018 113.796 60.0075C112.96 59.6145 112.094 59.385 111.157 59.3822C109.053 59.3761 106.949 59.3527 104.869 59.7457Z" fill="#F36523"/>
<path d="M109.879 62.0262C108.423 62.4096 107.103 63.2177 105.573 63.3695L105.537 63.3455C105.362 62.6893 105.486 62.1259 106.059 61.7026C106.164 61.5363 106.268 61.3707 106.373 61.2051C107.17 60.9804 107.899 60.5661 108.71 60.382C108.825 60.4349 108.941 60.4878 109.057 60.5407C109.779 60.5675 109.931 60.7482 109.884 61.5267C109.882 61.693 109.88 61.8593 109.879 62.0262Z" fill="#F9A825"/>
<path d="M119.881 81.652C119.706 81.764 119.619 82.0285 119.338 81.9557C119.372 80.352 119.058 78.773 118.406 77.35C117.308 74.9479 116.346 72.4462 114.54 70.4219C114.047 69.8709 113.542 69.3308 113.042 68.7859C113.494 68.5523 113.696 68.9412 113.947 69.1591C115.017 70.0901 115.869 71.208 116.706 72.339C117.767 73.6451 118.471 75.1368 119.035 76.7034C119.274 77.7637 119.472 78.8314 119.699 79.8944C119.778 80.1884 119.729 80.5059 119.861 80.7911C119.868 81.0783 119.875 81.3655 119.881 81.652Z" fill="#F78E3D"/>
<path d="M99.2131 68.4589C99.0158 66.9727 99.5432 65.7352 100.547 64.6613C100.883 64.6606 101.219 64.6599 101.555 64.6592C101.61 64.6132 101.661 64.6152 101.707 64.6729C101.768 64.7307 101.829 64.7877 101.891 64.8454C101.794 65.6631 101.365 66.322 100.838 66.9205C100.37 67.4502 99.8684 67.9497 99.382 68.4623C99.3257 68.461 99.2694 68.4596 99.2131 68.4589Z" fill="#F9A825"/>
<path d="M109.884 61.5267C109.785 61.0526 109.594 60.6548 109.057 60.5407C109.857 59.9739 110.791 59.8124 111.735 59.7416C112.122 59.7114 112.376 60.0412 112.506 60.3841C112.631 60.7153 112.409 60.9502 112.177 61.1577C111.623 61.6573 110.332 61.8634 109.884 61.5267Z" fill="#FCD058"/>
<path d="M124.049 69.438C124.622 70.1636 124.638 71.0561 124.794 71.9033C125.211 74.1653 125.408 76.4231 124.588 78.6507C124.494 78.9049 124.453 79.1832 124.199 79.3488C124.391 78.1086 124.676 76.8807 124.712 75.6206C124.772 73.5304 124.377 71.4877 124.049 69.438Z" fill="#F36824"/>
<path d="M96.5123 68.6272C96.2079 69.427 96.0182 70.2474 96.0502 71.1077C96.1273 71.509 96.1378 71.8992 95.8529 72.2394L95.8626 72.2414C95.782 72.3658 95.716 72.5114 95.5249 72.4846C95.1942 72.1864 95.3491 71.8003 95.4061 71.4828C95.9592 68.4081 97.1314 65.6232 99.3896 63.3633C99.5508 63.3049 99.5938 63.3654 99.5431 63.5159C98.4786 64.8117 97.5406 66.188 96.8277 67.7079C96.6887 68.004 96.5192 68.2878 96.5123 68.6272Z" fill="#FDF0DE"/>
<path d="M106.059 61.7026C105.76 62.2118 105.711 62.7978 105.537 63.3455C105.099 63.6011 104.618 63.5159 104.153 63.498C103.903 63.4884 103.647 63.3963 103.57 63.1153C103.493 62.8384 103.635 62.6082 103.861 62.4866C104.55 62.1135 105.208 61.638 106.059 61.7026Z" fill="#FCCF57"/>
<path d="M120.883 79.3543C122.28 78.6658 122.407 77.3356 122.596 76.0356C122.816 75.9429 122.918 76.0328 122.88 76.2472C122.62 77.7107 122.207 79.1179 121.083 80.1836C120.774 80.477 120.357 80.6832 119.884 80.6605C119.783 80.5725 119.77 80.4605 119.795 80.3382C120.034 79.8765 120.31 79.4553 120.883 79.3543Z" fill="#EF9226"/>
<path d="M104.692 74.7466C104.474 74.6243 104.258 74.5013 104.041 74.379C103.936 74.1873 103.52 74.5027 103.553 74.0863C103.946 73.8829 104.336 73.8836 104.745 74.0622C105.933 74.5824 107.104 75.1266 108.043 76.0501C107.486 76.226 107.2 75.7285 106.794 75.5416C106.11 75.2276 105.539 74.638 104.692 74.7466Z" fill="#FCF8EB"/>
<path d="M104.871 87.2608C104.314 87.805 103.802 87.5639 103.234 87.232C102.156 86.6026 101.284 85.8145 100.857 84.6176C101.183 84.9783 101.539 85.3164 101.828 85.7039C102.391 86.4583 103.015 87.0547 104.068 86.9338C104.379 86.8974 104.665 87.0025 104.871 87.2608Z" fill="#E48722"/>
<path d="M101.393 79.678C102.142 79.9308 102.48 80.5581 102.8 81.1978C103.009 81.6142 103.199 82.0402 103.399 82.4621C103.449 82.6311 103.378 82.6717 103.224 82.6263C102.613 81.6438 102.003 80.6605 101.393 79.678Z" fill="#FDEDD8"/>
<path d="M115.706 68.6801C115.197 68.474 114.643 68.3565 114.237 67.9491C113.671 67.7752 113.051 67.677 112.851 66.9878C113.987 67.2462 114.996 67.7189 115.706 68.6801Z" fill="#EF9426"/>
<path d="M110.045 67.9642C110.098 68.1332 110.153 68.3022 110.206 68.4706C109.634 68.5695 109.378 69.0436 109.064 69.4353C108.858 69.6902 108.673 69.952 108.378 70.1127C108.677 69.2023 109.099 68.384 110.045 67.9642Z" fill="#F46C25"/>
<path d="M108.71 60.382C107.987 60.8107 107.289 61.3102 106.373 61.2051C107.04 60.6211 107.798 60.2885 108.71 60.382Z" fill="#F57821"/>
<path d="M112.712 81.4644C111.822 81.0233 111.809 79.9782 111.213 79.3337C112.038 79.8202 112.398 80.6262 112.712 81.4644Z" fill="#EF9729"/>
<path d="M100.389 83.6315C99.803 83.1677 99.6536 82.4579 99.3528 81.8341C99.3764 81.7035 99.3778 81.5613 99.5265 81.4933C99.9427 82.1549 100.195 82.8819 100.389 83.6315Z" fill="#F6E9C8"/>
<path d="M112.851 66.9878C113.213 67.4495 113.839 67.5381 114.237 67.949C114.171 68.0143 114.105 68.0789 114.039 68.1435C113.274 68.2273 112.852 67.666 112.345 67.264C112.321 67.1204 112.4 67.0441 112.525 66.9981C112.634 66.9946 112.742 66.9912 112.851 66.9878Z" fill="#E5C681"/>
<path d="M101.713 75.051C101.109 75.756 100.505 76.461 100.195 77.3556C100.134 77.4147 100.071 77.4188 100.004 77.3679C100.241 76.3551 100.719 75.5176 101.713 75.051Z" fill="#FCD7A5"/>
<path d="M112.525 66.9981C112.476 67.0489 112.426 67.0998 112.377 67.1499C112.13 67.4069 111.828 67.5952 111.548 67.8102C111.438 67.7992 111.327 67.7896 111.216 67.7786C111.168 67.6392 110.784 67.6158 110.968 67.4722C111.407 67.1286 111.822 66.5446 112.525 66.9981Z" fill="#FBF2DF"/>
<path d="M104.52 84.6148C105.089 85.0958 105.632 85.5891 105.376 86.4473C104.928 85.9107 104.775 85.2394 104.52 84.6148Z" fill="#F46F26"/>
<path d="M119.576 71.904C118.756 71.6113 118.208 71.05 117.899 70.2502C118.534 70.7256 119.065 71.3042 119.576 71.904Z" fill="#FAF2DF"/>
<path d="M122.542 75.4165C122.044 74.8558 121.546 74.2952 121.047 73.7345C121.862 74.0196 122.264 74.6641 122.542 75.4165Z" fill="#EF9226"/>
<path d="M106.029 87.9164C105.608 87.8208 105.238 87.6511 105.021 87.2533C105.14 87.0925 105.26 86.931 105.379 86.7696C105.752 87.0657 105.794 87.5439 106.029 87.9164Z" fill="#FAECD7"/>
<path d="M99.5431 63.5158C99.4917 63.465 99.4403 63.4142 99.3896 63.3633C99.9406 62.9002 100.327 62.233 101.084 62.0228C100.57 62.5202 100.057 63.0184 99.5431 63.5158Z" fill="#FCD193"/>
<path d="M103.553 74.0863C103.716 74.1838 103.878 74.2814 104.041 74.379C103.812 74.4394 103.543 74.3268 103.35 74.5384C103.245 74.5961 103.14 74.6545 103.036 74.7122C102.823 74.7246 102.61 74.7376 102.397 74.75C102.309 74.807 102.231 74.7967 102.163 74.7184C102.556 74.3563 103.067 74.2477 103.553 74.0863Z" fill="#FDE4C8"/>
<path d="M113.215 78.3491C113.155 78.4082 113.094 78.4666 113.034 78.5257C112.725 78.0454 112.332 77.6111 112.202 77.0326C112.726 77.3315 112.929 77.8716 113.215 78.3491Z" fill="#F57B29"/>
<path d="M100.046 78.0282C100.615 78.3759 101.056 78.8218 101.202 79.4951C100.749 79.0581 100.322 78.6019 100.046 78.0282Z" fill="#F57B27"/>
<path d="M103.224 82.6263C103.282 82.5714 103.34 82.5171 103.399 82.4621C103.652 82.7589 103.808 83.1004 103.878 83.4811C103.572 83.2619 103.392 82.9479 103.224 82.6263Z" fill="#FBC685"/>
<path d="M108.025 71.1166C107.976 71.4416 107.928 71.7673 107.878 72.093C107.614 71.7212 107.592 71.3852 108.025 71.1166Z" fill="#F57627"/>
<path d="M119.911 80.3465C119.902 80.4516 119.893 80.556 119.883 80.6612C119.871 80.7038 119.863 80.7471 119.862 80.7917C119.476 80.6392 119.543 80.3142 119.556 80.0091C119.834 79.9576 119.937 80.0854 119.911 80.3465Z" fill="#F4C485"/>
<path d="M101.707 64.6729C101.656 64.6661 101.605 64.662 101.555 64.6599C101.565 64.4833 101.607 64.3246 101.835 64.3692C101.89 64.3802 101.929 64.4737 101.974 64.5293C101.885 64.5774 101.796 64.6255 101.707 64.6729Z" fill="#FBC44B"/>
<path d="M100.004 77.3679C100.068 77.3637 100.131 77.3596 100.195 77.3555C100.203 77.5355 100.244 77.7252 100.046 77.8433C99.9878 77.6887 99.771 77.5472 100.004 77.3679Z" fill="#FAB86E"/>
<path d="M108.216 70.4474C108.516 70.7545 108.337 70.9379 108.046 71.0932C108.102 70.8782 108.159 70.6624 108.216 70.4474Z" fill="#F9AC5D"/>
<path d="M102.163 74.7184C102.241 74.7294 102.318 74.739 102.397 74.75C102.197 74.9211 101.979 75.0516 101.704 75.0571C101.778 74.8407 101.939 74.7383 102.163 74.7184Z" fill="#FBC68B"/>
<path d="M142.216 189.477C142.223 189.043 142.23 188.609 142.238 188.175C142.511 187.083 142.462 185.958 142.541 184.85C142.713 182.45 142.789 180.043 142.916 177.639C143.07 174.718 143.237 171.797 143.397 168.877C143.399 168.772 143.4 168.668 143.402 168.565C143.673 167.197 143.535 165.798 143.724 164.423C143.977 164.207 143.882 163.914 143.885 163.652C143.894 162.227 143.819 160.798 143.909 159.379C144.047 157.221 143.928 155.054 144.096 152.908C144.289 150.443 144.213 147.985 144.192 145.528C144.181 144.297 144.082 143.04 143.734 141.831C143.73 141.614 143.725 141.397 143.721 141.18C143.773 140.285 143.608 139.372 144.056 138.513C144.326 137.995 144.559 137.957 144.981 138.36C145.68 139.027 145.657 139.921 145.699 140.735C145.826 143.142 145.809 145.558 145.905 147.968C146.128 153.511 146.102 159.056 146.046 164.6C145.996 169.447 145.617 174.285 145.524 179.134C145.468 182.052 145.159 184.969 144.875 187.878C144.626 190.434 144.403 192.99 144.226 195.551C144.172 196.339 143.59 196.866 143.292 197.533C143.194 197.751 142.983 197.716 142.814 197.541C141.981 196.68 141.603 195.658 141.757 194.476C141.916 193.256 142.095 192.039 142.056 190.803V190.805C142.286 190.383 142.014 189.902 142.216 189.477Z" fill="#91D9BB"/>
<path d="M125.533 80.3252C125.221 79.748 125.397 79.322 125.95 79.0128C125.929 79.4876 125.809 79.9308 125.533 80.3252Z" fill="#C69042"/>
<path d="M124.543 100.786C125.114 99.101 127.612 98.5362 128.966 99.786C129.973 100.715 130.571 101.941 131.339 103.037C133.391 105.962 135.251 109.006 136.617 112.313C136.968 113.16 137.319 114.028 137.065 115.001C136.904 115.616 136.628 116.116 136.059 116.435C135.747 116.386 135.613 116.131 135.458 115.91C132.511 111.704 129.427 107.598 126.309 103.514C125.683 102.694 124.945 101.931 124.562 100.943C124.555 100.891 124.549 100.839 124.543 100.786Z" fill="#F9BADD"/>
<path d="M124.562 100.943C128.52 106.016 132.398 111.147 136.059 116.435C136.058 116.486 136.056 116.538 136.055 116.589C134.467 117.054 133.227 116.697 132.307 115.418C129.91 112.088 127.823 108.567 125.853 104.979C125.163 103.724 124.677 102.387 124.562 100.943Z" fill="#D5B5CC"/>
<path d="M141.051 121.716C141.055 121.773 141.059 121.831 141.062 121.889C140.822 122.715 140.451 123.433 139.462 123.526C138.409 123.624 137.679 123.115 137.158 122.25C136.806 121.666 136.434 121.092 136.251 120.425C135.974 119.417 136.14 118.551 137.064 117.925C137.119 117.926 137.174 117.928 137.229 117.929C137.327 117.976 137.449 117.999 137.512 118.088C138.503 119.478 139.829 120.548 141.051 121.716Z" fill="#D5B5CC"/>
<path d="M149.226 212.072C148.787 212.078 148.346 212.083 147.906 212.089C144.719 212.08 141.537 211.886 138.348 211.885C135.09 211.885 131.827 211.712 128.621 211.072C126.711 210.692 124.969 209.919 123.799 208.276C122.193 206.021 123.286 203.89 125.304 202.756C125.542 202.622 125.906 202.652 126.202 202.685C126.734 202.746 126.956 203.002 126.61 203.518C126.141 204.221 125.517 204.825 125.208 205.633C125.142 205.918 125.055 206.203 125.211 206.488C125.271 206.59 125.33 206.692 125.39 206.794C125.74 207.773 126.61 208.197 127.469 208.54C128.859 209.095 130.341 209.289 131.831 209.451C135.646 209.864 139.474 209.662 143.293 209.809C145.601 209.897 147.93 209.949 150.218 210.404C150.773 210.514 151.246 210.779 151.857 210.964C151.082 211.72 150.112 211.801 149.226 212.072Z" fill="#92D9BB"/>
<path d="M145.568 208.639C147.612 208.639 149.656 208.639 151.699 208.639C149.657 209.061 147.612 209.037 145.568 208.639Z" fill="#97DBBE"/>
<path d="M140.553 127.988C140.939 128.055 141.288 128.194 141.553 128.494C141.147 128.467 140.775 128.373 140.553 127.988Z" fill="#AE518B"/>
<path d="M95.3776 75.7023C95.3401 75.9964 95.6139 76.1442 95.7028 76.3792C95.4318 76.7316 95.873 77.1824 95.5402 77.5252C94.4431 76.0576 94.4403 74.5116 95.206 72.9113C95.6618 73.8176 95.429 74.7658 95.3776 75.7023Z" fill="#F36623"/>
<path d="M95.3776 75.7023C95.3199 74.772 95.263 73.8417 95.206 72.9113C95.3123 72.7691 95.4186 72.6269 95.5249 72.4846C95.6375 72.4036 95.7501 72.3225 95.8633 72.2414C95.6305 73.3854 95.75 74.5776 95.3776 75.7023Z" fill="#F89C2B"/>
<path d="M95.5402 77.5252C95.6014 77.1439 95.3846 76.7248 95.7028 76.3792C95.5381 77.001 96.2948 77.5259 95.8939 78.1718C95.7758 77.956 95.6577 77.741 95.5402 77.5252Z" fill="#F25325"/>
<path d="M119.911 80.3465C119.793 80.2338 119.675 80.1218 119.556 80.0091C119.233 78.9359 119.029 77.8386 118.882 76.7296C118.482 75.0888 117.783 73.6067 116.543 72.4118C115.668 71.3248 114.844 70.1945 113.78 69.2711C113.557 69.0759 113.393 68.7928 113.042 68.786C112.545 68.461 112.047 68.136 111.548 67.8103C111.607 67.3231 111.977 67.2187 112.377 67.15C112.928 67.4853 113.426 67.9092 114.039 68.1435C115.057 69.1817 116.298 69.9733 117.273 71.0617C118.985 72.9732 120.207 75.1513 120.977 77.5795C121.163 78.167 121.062 78.7703 120.883 79.3543C120.558 79.6848 120.235 80.0153 119.911 80.3465Z" fill="#D4A95A"/>
<path d="M110.856 85.3225C110.653 85.4235 110.751 85.6214 110.707 85.7746C110.451 85.2483 110.316 84.6856 110.187 84.1208C110.532 84.4547 110.695 84.8882 110.856 85.3225Z" fill="#F1C286"/>
<path d="M142.216 189.477C142.173 189.92 142.376 190.393 142.057 190.805C142.056 190.475 142.055 190.146 142.055 189.816C142.057 189.709 142.06 189.602 142.063 189.495C142.113 189.49 142.165 189.483 142.216 189.477Z" fill="#BDE8D5"/>
<path d="M160.567 106.405C160.565 107.247 159.557 108.036 158.5 107.69C158.006 107.53 157.844 107.74 157.581 108.07C156.615 109.286 155.014 109.067 154.379 107.682C154.052 106.97 154.279 106.382 154.761 105.883C155.211 105.419 155.776 105.06 156.46 105.35C157.063 105.606 157.471 105.488 157.898 105.004C158.368 104.471 159.017 104.421 159.65 104.709C160.246 104.982 160.583 105.464 160.567 106.405Z" fill="#F9BADD"/>
<path d="M141.051 121.716C139.962 121.125 139.112 120.254 138.299 119.353C137.902 118.914 137.583 118.406 137.228 117.929C137.83 117.559 138.374 117.827 138.832 118.165C140.034 119.053 140.807 120.23 141.051 121.716Z" fill="#F9BADD"/>
<path d="M95.8529 72.2394C95.9189 71.8621 95.9849 71.4849 96.0502 71.1077C96.2163 71.4299 96.3824 71.7522 96.5484 72.0744C96.3164 72.1294 96.085 72.1844 95.8529 72.2394Z" fill="#F9AF38"/>
<path d="M116.543 72.4118C116.605 72.3341 116.694 72.3163 116.753 72.3877C117.808 73.6685 118.844 74.9603 118.882 76.7289C118.226 75.2241 117.569 73.72 116.543 72.4118Z" fill="#EBBF80"/>
<path d="M126.926 99.8493C127.068 99.5518 127.339 99.5971 127.683 99.435C127.461 99.828 127.317 100.022 126.926 99.8493Z" fill="#FCE9F1"/>
<path d="M157.859 107.238C157.787 107.238 157.75 107.249 157.733 107.236C157.342 106.946 157.247 106.531 157.273 106.083C157.279 105.975 157.422 105.901 157.526 105.991C157.92 106.334 157.95 106.768 157.859 107.238Z" fill="#FCD4E9"/>
<path d="M123.22 80.9773C123.072 80.9278 122.923 80.8783 122.775 80.8289C123.138 79.511 123.5 78.1931 123.863 76.8753C123.773 76.8203 123.683 76.7639 123.593 76.7083C123.274 77.0546 122.958 77.4037 122.635 77.7479C121.853 78.5827 121.065 79.4134 120.285 80.2517C119.973 80.5863 119.678 80.936 119.375 81.2789C119.436 81.3552 119.496 81.4315 119.556 81.507C120.297 81.5627 121.038 81.6224 121.78 81.6712C122.247 81.7022 122.819 81.8863 123.151 81.6877C123.461 81.5029 123.511 80.8989 123.684 80.4839C123.714 80.4118 123.796 80.3616 123.834 80.2916C124.167 79.6684 124.559 79.0658 124.801 78.4096C124.938 78.0378 124.825 77.5775 124.825 77.157C124.744 77.157 124.663 77.1563 124.581 77.1563C124.128 78.4302 123.673 79.7034 123.22 80.9773ZM100.034 75.005C100.313 74.7796 100.592 74.5542 100.87 74.3295C102.547 72.9801 104.424 72.7739 106.223 73.8499C107.627 74.6896 108.873 75.8226 110.069 76.9501C110.794 77.6331 111.306 78.5429 111.87 79.3784C111.986 79.5502 111.908 79.8498 111.919 80.0895C111.7 79.959 111.43 79.8717 111.271 79.689C110.674 79.0025 110.191 78.1993 109.522 77.5974C108.338 76.5345 107.15 75.4124 105.78 74.6291C103.56 73.3607 101.552 74.403 100.145 76.406C99.7238 77.0058 99.7891 77.5356 100.358 78.1526C103.141 81.1703 105.339 84.5379 106.282 88.5856C106.617 90.0271 106 90.9836 104.546 91.3684C104.369 91.4158 104.192 91.4687 104.022 91.582C105.512 91.8679 107.04 92.1819 108.478 91.6315C109.322 91.3086 110.005 90.5693 110.742 89.9942C110.845 89.9145 110.898 89.6918 110.877 89.5496C110.617 87.8043 110.085 86.1471 109.137 84.6134C109.507 86.2762 110.135 87.9081 109.675 89.8375C109.001 87.2945 108.379 84.9419 107.755 82.5892C107.785 82.548 107.814 82.5061 107.842 82.4642C108.153 82.7843 108.464 83.1052 108.775 83.4261C107.822 80.5038 106.013 77.9959 104.443 75.3678C104.514 75.2949 104.585 75.2228 104.656 75.1499C104.915 75.3588 105.232 75.5244 105.425 75.7821C107.231 78.1972 108.812 80.7347 109.827 83.5938C110.016 84.1256 110.41 84.6567 110.853 85.0174C112.189 86.1065 113.505 87.1825 114.265 88.7883C114.385 89.0432 114.798 89.2885 115.094 89.3132C115.779 89.3696 116.478 89.3009 117.169 89.2589C118.538 89.1758 119.27 88.4756 119.342 87.1378C119.386 86.3154 119.382 85.4895 119.35 84.667C119.34 84.4107 119.169 84.1613 119.016 83.7614C119.914 83.7147 120.861 83.6027 121.806 83.6254C132.639 83.8858 143.473 84.1125 154.302 84.4588C161.865 84.7 169.42 84.6643 176.966 84.1881C180.618 83.9579 184.254 83.4948 187.897 83.1403C187.975 83.1327 188.056 83.1643 188.208 83.345C187.853 83.4941 187.51 83.725 187.142 83.7779C185.083 84.074 183.027 84.441 180.956 84.575C172.717 85.1088 164.47 85.3947 156.213 85.1047C150.965 84.9206 145.718 84.6849 140.467 84.5605C138.588 84.5159 136.703 84.7398 134.82 84.8161C134.538 84.8278 134.021 85.26 133.999 84.4994C133.999 84.4671 133.644 84.4107 133.459 84.4245C132.439 84.4994 131.417 84.6966 130.401 84.6588C127.241 84.5413 124.085 84.3345 120.927 84.1668C120.629 84.1517 120.33 84.1647 120.021 84.1647C120.021 85.2923 120.105 86.3868 120.002 87.4642C119.848 89.0665 118.974 89.8547 117.358 90.0189C116.973 90.0581 116.58 90.0264 116.192 90.0395C114.913 90.0821 114.062 89.6046 113.4 88.42C112.819 87.3811 111.83 86.5648 111.022 85.6496C110.959 85.7011 110.897 85.7513 110.835 85.8028C111.046 86.7153 111.342 87.6188 111.446 88.5437C111.551 89.4774 111.743 90.515 110.779 90.9774C112.471 93.3417 114.084 95.671 115.776 97.9433C120.454 104.225 125.172 110.479 129.863 116.752C132.953 120.885 135.893 125.124 138.406 129.626C139.363 131.342 140.282 133.17 140.71 135.059C141.239 137.389 141.241 139.837 141.464 142.235C142.473 153.126 141.973 164.041 141.936 174.946C141.911 182.465 141.206 189.935 139.122 197.201C138.709 198.644 137.774 199.943 137.046 201.291C136.964 201.443 136.663 201.48 136.464 201.57C136.489 201.349 136.46 201.102 136.551 200.914C136.811 200.378 137.122 199.866 137.439 199.297C136.591 199.297 135.845 199.234 135.114 199.308C131.915 199.635 128.682 199.817 125.532 200.413C122.926 200.905 120.612 202.23 118.684 204.126C116.539 206.236 116.972 208.523 119.73 209.734C123.652 211.456 127.795 212.148 132.033 212.409C136.385 212.679 140.738 212.982 145.095 213.133C151.379 213.351 157.652 213.092 163.891 212.27C166.575 211.916 169.023 210.832 171.398 209.641C173.373 208.65 173.642 206.49 172.155 204.864C171.22 203.841 170.066 203.16 168.753 202.71C164.824 201.361 160.796 200.487 156.642 200.195C156.034 200.153 155.431 200.042 154.826 199.963C154.83 199.857 154.835 199.753 154.84 199.648C155.055 199.619 155.271 199.568 155.486 199.565C160.329 199.509 164.994 200.465 169.481 202.189C170.657 202.642 171.793 203.43 172.689 204.319C174.748 206.364 174.174 209.221 171.526 210.504C168.361 212.037 165.058 213.098 161.509 213.396C154.91 213.951 148.301 214.175 141.689 213.848C137.141 213.623 132.605 213.153 128.065 212.785C125.026 212.538 122.18 211.571 119.409 210.398C116.232 209.052 115.711 206.045 118.187 203.656C120.809 201.125 123.99 199.699 127.587 199.276C130.285 198.959 133.012 198.889 135.723 198.671C136.405 198.616 137.104 198.494 137.739 198.254C138.01 198.152 138.24 197.692 138.311 197.358C139.014 194.027 139.807 190.709 140.327 187.349C141.226 181.549 141.2 175.686 141.221 169.831C141.241 164.637 141.385 159.442 141.317 154.249C141.265 150.406 140.968 146.566 140.763 142.725C140.619 140.041 140.657 137.322 139.818 134.732C139.34 133.252 138.765 131.774 138.006 130.42C135.076 125.2 131.637 120.306 128.019 115.53C124.604 111.023 121.228 106.487 117.871 101.938C115.319 98.4771 112.826 94.9736 110.247 91.4069C110.023 91.5704 109.734 91.7806 109.293 92.1022C109.774 92.1819 110.056 92.2293 110.494 92.3021C110.263 92.4238 110.166 92.5199 110.068 92.5206C108.529 92.5268 106.974 92.6567 105.453 92.4911C101.901 92.1036 98.7372 90.7609 96.3977 88.0125C94.5411 85.831 93.8949 83.2241 94.3187 80.3774C94.3562 80.1273 94.2527 79.8538 94.2006 79.5941C93.792 77.5555 93.1243 75.5292 93.0222 73.4762C92.8054 69.1611 94.1783 65.235 97.1911 62.0853C100.622 58.5007 104.88 56.7403 109.977 57.031C117.674 57.4693 124.122 63.6423 125.539 71.0939C125.895 72.9622 125.804 74.9136 125.925 76.9495C126.086 76.9611 126.376 77.0003 126.665 76.9996C132.25 76.9859 137.837 76.8636 143.42 76.9749C152.06 77.1453 160.697 77.4305 169.333 77.7534C175.469 77.9829 181.592 78.4577 187.642 79.5481C188.671 79.7336 189.65 80.2881 190.591 80.7856C190.85 80.9223 191.071 81.5297 190.978 81.8149C190.863 82.166 190.401 82.4064 190.042 82.739C189.94 82.4841 189.889 82.4202 189.906 82.3872C190.399 81.371 190.364 81.0632 189.217 80.7388C187.571 80.2716 185.88 79.904 184.181 79.6828C175.074 78.4989 165.91 78.2722 156.738 78.1299C150.349 78.0303 143.963 77.7506 137.575 77.6146C133.826 77.5349 130.073 77.6098 126.323 77.5466C125.433 77.5321 125.525 78.0736 125.4 78.7174C126.214 78.7648 127.004 78.8644 127.791 78.8466C132.095 78.7497 136.398 78.5862 140.703 78.5209C144.008 78.47 147.314 78.5009 150.619 78.549C156.037 78.6274 161.46 78.6239 166.87 78.8919C171.216 79.107 175.545 79.6642 179.879 80.0882C180.925 80.1906 181.964 80.3678 183.006 80.51C183.009 80.5904 183.011 80.6715 183.013 80.7526C182.644 80.7526 182.271 80.7938 181.91 80.7457C179.655 80.4496 177.41 79.9954 175.146 79.8525C170.103 79.5337 165.052 79.3021 160.001 79.1544C154.168 78.984 148.332 78.8569 142.497 78.8713C138.388 78.8816 134.28 79.1661 130.171 79.3111C129.312 79.342 128.448 79.3214 127.587 79.2829C125.847 79.2052 124.574 80.0641 123.973 81.8004C124.837 81.8595 125.687 81.9303 126.537 81.9743C129.977 82.1515 133.416 82.3474 136.856 82.4848C140.575 82.6332 144.298 82.7129 148.017 82.8428C157.439 83.1733 166.86 83.0661 176.271 82.6311C179.4 82.4862 182.512 82.0127 185.63 81.6822C185.806 81.6637 185.975 81.5785 186.266 81.4864C185.87 81.2624 185.588 81.103 185.305 80.9436C185.354 80.8364 185.402 80.7292 185.45 80.6221C185.935 80.8227 186.529 80.9134 186.878 81.2521C187.304 81.6658 186.893 82.0189 186.444 82.1241C185.608 82.3199 184.763 82.5143 183.911 82.6009C173.25 83.6783 162.557 83.7497 151.856 83.5161C148.828 83.4495 145.799 83.4069 142.774 83.2853C139.138 83.1382 135.508 82.9094 131.874 82.7328C129.738 82.6298 127.598 82.5968 125.463 82.4635C121.722 82.2306 117.985 81.9468 114.246 81.6809C113.492 81.6273 112.74 81.5551 111.987 81.4912C111.992 81.3799 111.999 81.2693 112.004 81.158C114.39 81.2611 116.778 81.3641 119.164 81.4672C118.832 78.7559 118.525 76.0748 116.997 73.7441C115.517 71.4863 113.771 69.447 111.494 67.6825C112.898 67.5265 115.145 69.8139 117.155 72.631C118.613 74.6744 119.023 75.8625 119.795 79.9624C120.729 79.0479 121.548 78.246 122.463 77.3501C122.099 77.2119 121.892 77.1336 121.509 76.9886C121.881 76.8615 122.084 76.7921 122.34 76.7049C120.738 73.4308 118.722 70.5202 115.512 68.6011C114.372 67.9195 113.188 67.3052 111.994 66.7233C111.747 66.6023 111.277 66.6429 111.056 66.8044C109.791 67.7237 108.706 68.8162 108.023 70.2481C107.917 70.4707 107.753 70.6652 107.614 70.8727C107.511 70.8432 107.407 70.8136 107.303 70.7834C107.357 70.4487 107.334 70.0784 107.477 69.7857C108.218 68.2624 109.402 67.1122 110.773 66.1392C111.261 65.7936 111.782 65.7393 112.34 66.0094C112.91 66.2856 113.497 66.5268 114.157 66.8188C114.326 65.4844 114.552 64.2119 114.61 62.9325C114.626 62.567 114.237 62.0723 113.896 61.8208C111.431 60.0034 108.741 60.0529 105.969 60.9942C105.433 61.1763 105.316 61.5026 105.407 62.0798C105.631 63.5062 106.278 64.7258 107.04 65.9193C107.407 66.4924 107.675 67.1259 107.989 67.7312C107.916 67.778 107.843 67.8247 107.77 67.8708C107.642 67.7993 107.447 67.7594 107.396 67.6529C106.553 65.8761 105.182 64.3473 104.897 62.3025C104.742 61.1887 104.88 60.7771 105.943 60.3999C108.656 59.4379 111.304 59.3252 113.857 60.9413C115.123 61.7418 115.471 62.3485 115.21 63.7997C115.025 64.8228 114.818 65.8424 114.655 66.8682C114.633 67.0105 114.803 67.1816 114.976 67.5176C115.362 66.5302 115.651 65.7442 115.98 64.9753C116.184 64.4971 116.4 64.0099 116.701 63.5894C117.293 62.7621 118.366 62.6604 119.095 63.375C120.451 64.7032 121.517 66.2478 122.235 67.9958C122.793 69.3528 122.492 70.2928 121.332 71.1908C121.139 71.3392 120.891 71.4169 120.669 71.5275C120.613 71.4567 120.556 71.386 120.5 71.3159C120.675 71.118 120.833 70.9016 121.029 70.7257C122.017 69.8379 122.245 69.0093 121.549 67.8783C120.745 66.5687 119.839 65.3147 118.89 64.1033C118.227 63.2568 117.488 63.3572 117.002 64.3177C116.468 65.3718 116.03 66.4718 115.511 67.6406C117.958 68.9165 119.766 70.9263 121.308 73.2144C121.77 72.9567 122.156 72.6866 122.582 72.5183C123.005 72.3513 123.468 72.2861 123.999 72.1555C123.054 67.2434 120.665 63.2637 115.965 60.8155C116.047 60.7214 116.13 60.6273 116.212 60.5332C117.129 61.0292 118.154 61.3955 118.945 62.0427C121.97 64.5183 123.788 67.7175 124.39 71.566C124.566 72.6915 124.45 72.7114 123.338 72.8598C122.765 72.9354 122.234 73.327 121.549 73.6376C122.27 74.3385 122.133 75.5334 123.355 75.8295C123.316 75.971 123.257 76.1834 123.198 76.395C123.277 76.4328 123.356 76.4699 123.436 76.5076C123.614 76.1009 123.844 75.7079 123.957 75.2853C124.078 74.829 124.09 74.344 124.149 73.8719C124.235 73.8726 124.321 73.8733 124.407 73.8733C124.46 74.8785 124.512 75.8838 124.564 76.889C124.64 76.9089 124.715 76.9295 124.791 76.9501C124.878 76.7543 125.048 76.5551 125.04 76.3627C124.965 74.4484 125.175 72.4565 124.707 70.637C123.189 64.7444 119.581 60.4727 113.666 58.5124C108.509 56.8029 103.613 57.6844 99.4 61.1165C94.227 65.3305 92.7922 70.8487 94.2082 77.2003C94.4028 78.0736 94.6682 78.9311 94.8878 79.7467C95.9592 79.4498 96.9104 79.1784 97.8686 78.9304C97.9791 78.9015 98.1229 78.997 98.5322 79.1166C97.9972 79.3598 97.69 79.5419 97.3572 79.6443C94.1825 80.6213 94.6397 80.4805 95.1643 83.1767C95.8765 86.8341 98.0785 89.2961 101.75 90.3034C102.546 90.5212 103.454 90.4669 104.292 90.3741C105.198 90.2752 105.649 89.6946 105.484 88.8117C105.248 87.5501 105.026 86.2426 104.499 85.0882C103.338 82.5459 101.728 80.2696 99.6376 78.3663C98.9664 77.7554 98.8178 77.069 99.2027 76.2912C99.4313 75.8288 99.7669 75.4193 100.055 74.9857L100.034 75.005Z" fill="#231F20"/>
<path d="M180.542 93.8701C181.653 92.5447 182.78 91.2309 183.871 89.889C185.456 87.941 187.012 85.9711 188.587 84.0142C188.764 83.7937 188.976 83.6013 189.172 83.3958C189.234 83.4405 189.296 83.4852 189.358 83.5298C189.148 83.8933 188.976 84.2857 188.721 84.6162C185.658 88.5945 182.549 92.5385 179.519 96.5415C175.158 102.304 170.873 108.124 166.515 113.89C163.903 117.344 161.196 120.728 158.566 124.169C156.809 126.469 155.041 128.768 153.411 131.157C152.209 132.921 151.508 134.901 151.279 137.07C151.022 139.515 150.442 141.926 150.182 144.371C149.819 147.784 149.617 151.215 149.356 154.64C148.992 159.405 148.607 164.17 148.284 168.938C147.858 175.234 147.942 181.514 149.06 187.751C149.511 190.265 149.777 192.818 150.369 195.297C150.765 196.955 151.59 198.514 152.223 200.117L152.202 200.092C152.491 200.797 152.776 201.502 153.07 202.203C153.286 202.721 153.516 203.234 153.741 203.748C153.639 203.808 153.539 203.867 153.439 203.926C153.049 203.395 152.573 202.905 152.282 202.324C150.447 198.656 149.151 194.826 148.695 190.73C148.357 187.701 147.721 184.694 147.553 181.66C147.338 177.772 147.268 173.855 147.478 169.969C147.875 162.564 148.432 155.165 149.087 147.777C149.451 143.679 149.969 139.576 150.768 135.543C151.139 133.666 152.237 131.892 153.202 130.179C154.017 128.735 155.116 127.448 156.062 126.047C154.857 127.002 153.65 127.939 152.045 128.044C152.008 127.98 151.97 127.915 151.932 127.852C152.111 127.742 152.278 127.601 152.471 127.528C154.18 126.879 155.517 125.803 156.599 124.329C162.097 116.837 167.596 109.346 173.171 101.911C175.42 98.9121 177.876 96.0647 180.217 93.1328C181.146 91.9696 182.018 90.7616 182.924 89.5791C183.094 89.3572 183.297 89.1586 183.484 88.9497C183.563 89.0102 183.641 89.0706 183.719 89.1304C182.65 90.7011 181.581 92.2719 180.511 93.8426C180.425 93.9051 180.319 93.9518 180.254 94.0315C177.849 97.0163 175.386 99.9585 173.058 103.002C169.322 107.884 165.666 112.826 162 117.761C160.957 119.164 160.003 120.631 159.008 122.069C160.348 120.685 161.574 119.219 162.723 117.697C168.604 109.908 174.466 102.104 180.331 94.3016C180.425 94.1758 180.472 94.0151 180.542 93.8701Z" fill="#231F20"/>
<path d="M147.514 197.797C147.631 197.085 147.895 196.361 147.835 195.663C147.703 194.139 147.316 192.635 147.198 191.109C146.874 186.923 146.437 182.733 146.399 178.54C146.29 166.373 146.338 154.205 146.363 142.037C146.369 139.15 146.636 136.278 147.497 133.493C147.55 133.325 147.634 133.167 147.703 133.005C147.773 133.016 147.842 133.028 147.912 133.039C147.886 133.359 147.887 133.683 147.83 133.997C147.004 138.508 146.998 143.068 147.002 147.626C147.008 156.937 146.987 166.249 147.093 175.559C147.145 180.058 147.413 184.558 147.678 189.051C147.768 190.577 148.194 192.08 148.384 193.603C148.502 194.551 148.549 195.525 148.462 196.471C148.416 196.976 148.017 197.448 147.778 197.936C147.69 197.89 147.602 197.843 147.514 197.797Z" fill="#231F20"/>
<path d="M145.786 198.895C144.988 199.662 144.072 199.74 143.167 199.357C142.061 198.889 141.171 198.081 141.212 196.824C141.273 194.967 141.506 193.113 141.718 191.264C142.137 187.612 142.801 183.976 142.989 180.313C143.417 171.977 143.682 163.631 143.889 155.286C144.024 149.843 143.521 144.424 142.769 139.031C142.665 138.291 142.615 137.544 142.541 136.8C142.645 136.78 142.749 136.76 142.853 136.739C143.003 137.372 143.186 137.999 143.295 138.639C144.796 147.438 144.709 156.307 144.424 165.179C144.276 169.763 144.072 174.347 143.817 178.925C143.552 183.67 143.055 188.39 142.104 193.06C141.881 194.153 141.845 195.296 141.84 196.417C141.833 197.935 143.003 198.95 144.55 198.897C144.962 198.882 145.374 198.895 145.786 198.895Z" fill="#231F20"/>
<path d="M119.567 204.809C118.728 205.606 118.98 206.246 119.473 206.847C120.688 208.327 122.351 209.118 124.174 209.458C126.405 209.875 128.671 210.139 130.932 210.373C134.905 210.784 138.879 211.262 142.865 211.457C148.621 211.739 154.354 211.159 160.073 210.547C161.756 210.366 163.436 210.123 165.124 210.016C166.802 209.91 168.164 209.279 169.293 208.061C169.512 207.824 169.903 207.742 170.215 207.588C170.05 207.925 169.93 208.294 169.714 208.593C168.43 210.357 166.49 210.679 164.493 210.882C156.812 211.661 149.131 212.58 141.392 212.205C138.043 212.043 134.709 211.551 131.373 211.173C129.031 210.907 126.683 210.645 124.359 210.259C122.466 209.944 120.722 209.175 119.409 207.738C118.953 207.24 118.653 206.537 118.474 205.876C118.331 205.35 118.631 204.876 119.567 204.809Z" fill="#231F20"/>
<path d="M114.167 91.1959C115.341 91.2667 116.515 91.3505 117.691 91.4075C126.209 91.8198 134.725 92.2575 143.245 92.6264C150.422 92.9363 157.562 92.5014 164.694 91.6301C170.049 90.976 175.356 90.1577 180.562 88.7464C181.627 88.4571 182.7 88.1843 183.592 87.3859C183.394 87.2347 183.248 87.1227 182.932 86.8815C183.338 86.9111 183.633 86.8472 183.765 86.9633C183.943 87.1227 184.147 87.4931 184.073 87.6408C183.939 87.9095 183.639 88.1774 183.35 88.275C181.676 88.8391 180.001 89.4135 178.296 89.8739C171.321 91.7538 164.145 92.4224 156.982 92.9157C151.59 93.2867 146.155 93.1054 140.739 93.0628C136.99 93.0332 133.238 92.8869 129.495 92.678C124.81 92.4155 120.131 92.041 115.451 91.6982C115.005 91.6659 114.568 91.514 114.126 91.4171C114.14 91.3436 114.153 91.2694 114.167 91.1959Z" fill="#231F20"/>
<path d="M149.09 128.879C148.553 129.014 148.018 129.247 147.476 129.266C145.188 129.341 142.901 129.222 140.75 128.383C139.964 128.076 139.127 127.565 138.629 126.912C134.717 121.781 130.883 116.592 127.022 111.423C123.16 106.252 119.301 101.079 115.423 95.9197C114.784 95.0704 114.054 94.2871 113.49 93.3238C113.794 93.5664 114.149 93.767 114.394 94.059C115.704 95.6222 117.053 97.1592 118.269 98.7932C123.735 106.138 129.153 113.519 134.607 120.873C136.15 122.955 137.747 124.997 139.335 127.044C139.472 127.22 139.716 127.335 139.934 127.425C142.605 128.538 145.412 128.761 148.27 128.649C148.526 128.638 148.784 128.647 149.041 128.647C149.057 128.725 149.074 128.802 149.09 128.879Z" fill="#231F20"/>
<path d="M172.512 86.1278C172.259 86.1525 172.005 86.2006 171.752 86.1992C163.055 86.1635 154.359 86.1106 145.663 86.0866C140.053 86.0708 134.44 86.0625 128.83 86.1154C126.332 86.1395 123.835 86.3243 121.337 86.4329C121.045 86.4452 120.752 86.4342 120.458 86.4342C120.446 86.3559 120.433 86.2776 120.421 86.1985C120.768 86.123 121.113 85.9945 121.463 85.978C125.514 85.7863 129.567 85.4537 133.618 85.4634C143.168 85.4867 152.717 85.686 162.266 85.7911C165.378 85.8255 168.49 85.7842 171.602 85.7856C171.907 85.7856 172.212 85.8364 172.517 85.8639C172.515 85.9512 172.514 86.0398 172.512 86.1278Z" fill="#231F20"/>
<path d="M102.507 72.6345C101.647 72.2243 100.793 71.7989 99.9232 71.408C99.3722 71.1606 98.8143 70.8796 98.2292 70.7641C97.0557 70.5347 96.2038 71.0026 95.8098 72.1246C95.4305 73.2068 94.8926 74.2828 95.1372 75.4894C95.2699 76.1421 95.4541 76.7852 95.5472 77.4765C95.0302 77.0587 94.6884 76.5138 94.6383 75.8336C94.4285 73.0103 94.6904 70.2523 95.805 67.6048C96.5311 65.8802 97.219 64.1734 98.61 62.8006C100.297 61.1364 102.268 59.9526 104.433 59.0806C106.769 58.14 109.204 57.8411 111.694 58.4196C112.233 58.5447 112.746 58.781 113.263 59.1191C108.075 57.7696 103.621 59.3046 99.7245 62.5395C97.467 64.4125 95.5048 68.8677 95.363 71.4526C95.4124 71.4409 95.4853 71.4444 95.5076 71.4135C96.4991 69.9884 97.7033 69.6998 99.5981 70.613C100.544 71.0692 101.451 71.6031 102.371 72.1095C102.492 72.1762 102.586 72.2923 102.691 72.385C102.63 72.4682 102.569 72.5513 102.507 72.6345Z" fill="#231F20"/>
<path d="M122.161 100.665C122.419 100.841 122.694 100.998 122.934 101.197C125.092 102.994 127.044 104.964 128.466 107.411C129.641 109.432 130.814 111.462 132.127 113.394C132.71 114.25 133.575 114.959 134.429 115.578C135.13 116.088 136.096 115.873 136.745 115.311C137.388 114.753 137.284 114.056 136.997 113.416C136.309 111.887 135.552 110.388 134.83 108.874C134.722 108.647 134.654 108.401 134.568 108.164C134.627 108.127 134.687 108.089 134.746 108.051C134.876 108.156 135.057 108.235 135.13 108.37C135.92 109.82 136.747 111.254 137.453 112.743C138.13 114.169 137.969 115.153 137.132 115.837C136.142 116.647 134.826 116.763 133.67 115.885C132.813 115.234 131.979 114.416 131.455 113.494C128.93 109.053 126.36 104.662 122.386 101.278C122.245 101.159 122.137 101.001 122.014 100.861C122.063 100.796 122.111 100.73 122.161 100.665Z" fill="#231F20"/>
<path d="M134.572 202.457C133.864 203.147 133.167 203.847 132.443 204.52C132.062 204.875 131.596 205.148 131.235 205.522C130.725 206.049 130.77 206.496 131.469 206.722C132.538 207.069 133.659 207.407 134.77 207.449C139.236 207.621 143.706 207.676 148.175 207.781C148.444 207.787 148.712 207.855 148.985 208.084C148.851 208.152 148.721 208.269 148.582 208.281C143.304 208.758 138.039 208.595 132.789 207.934C132.175 207.856 131.556 207.586 131.006 207.286C129.995 206.736 129.877 205.859 130.72 205.064C131.38 204.441 132.15 203.933 132.853 203.355C133.238 203.04 133.579 202.675 133.96 202.356C134.062 202.271 134.24 202.273 134.382 202.234C134.446 202.309 134.509 202.383 134.572 202.457Z" fill="#231F20"/>
<path d="M139.304 200.407C139.873 201.052 139.737 201.655 139.547 202.191C139.283 202.939 138.894 203.643 138.575 204.372C138.317 204.96 138.478 205.408 139.167 205.383C141.903 205.289 144.659 205.617 147.371 205.009C147.453 204.991 147.546 204.985 147.61 204.941C147.971 204.69 148.325 204.429 148.68 204.171C148.28 204.001 147.896 203.751 147.478 203.676C146.414 203.485 145.334 203.387 144.267 203.214C144.065 203.181 143.893 202.973 143.707 202.844C143.933 202.756 144.169 202.574 144.386 202.595C145.656 202.716 146.925 202.87 148.188 203.045C148.757 203.123 149.308 203.324 149.411 203.981C149.52 204.682 149.122 205.186 148.503 205.387C147.535 205.699 146.537 206.033 145.534 206.105C143.709 206.236 141.872 206.183 140.039 206.2C139.707 206.203 139.371 206.192 139.042 206.151C137.875 206.004 137.405 205.209 137.872 204.15C138.159 203.496 138.53 202.877 138.795 202.214C139.005 201.687 139.108 201.12 139.304 200.407Z" fill="#231F20"/>
<path d="M105.024 72.1321C104.776 71.7075 104.529 71.2836 104.281 70.8596C105.465 71.1661 105.764 71.9796 105.662 73.0824C105.406 73.013 105.039 72.9993 104.775 72.8282C103.571 72.0483 102.379 71.2478 101.216 70.4082C100.435 69.8434 99.68 69.2353 98.9769 68.5791C98.6538 68.2775 98.2758 67.8109 98.2841 67.4269C98.3175 65.8795 98.7003 64.4084 99.8371 63.2458C101.068 61.987 103.394 62.4632 104.262 63.5062C104.35 63.6127 104.452 63.7089 104.531 63.8202C104.754 64.1349 104.998 64.44 105.182 64.776C105.956 66.1914 106.712 67.6178 107.414 69.1941C107.167 69.0594 106.835 68.9845 106.69 68.7804C106.149 68.0212 105.657 67.2276 105.169 66.4326C104.738 65.7304 104.371 64.9883 103.917 64.3012C103.306 63.375 102.249 63.1551 101.279 62.8597C100.806 62.716 99.5035 63.8182 99.3674 64.3981C99.1811 65.1951 98.9539 65.9977 98.9081 66.8071C98.8837 67.2331 99.0832 67.8164 99.3951 68.0913C100.616 69.1645 101.91 70.1581 103.202 71.1503C103.742 71.5639 104.343 71.8985 104.916 72.2696C104.952 72.2235 104.988 72.1775 105.024 72.1321Z" fill="#231F20"/>
<path d="M165.997 90.4435C155.427 92.1049 144.816 91.9991 134.188 91.2028C144.805 91.5257 155.413 91.5037 165.997 90.4435Z" fill="#231F20"/>
<path d="M141.813 86.9674C150.745 87.1406 159.679 87.3144 168.663 87.489C159.671 88.2104 150.747 87.3914 141.813 86.9674Z" fill="#231F20"/>
<path d="M156.556 109.362C156.989 108.491 158.028 108.325 158.877 108.938C160.258 109.935 160.385 111.725 158.981 112.655C158.118 113.224 157.029 113.544 155.996 113.748C155.09 113.927 154.355 113.088 154.31 112.109C154.265 111.129 154.875 110.325 155.866 110.262C155.61 110.589 155.315 110.809 155.247 111.083C155.122 111.582 154.961 112.19 155.149 112.603C155.272 112.871 156.025 113.048 156.428 112.961C157.165 112.8 157.913 112.506 158.547 112.1C159.401 111.553 159.462 110.99 159.007 110.032C158.638 109.257 158.108 109.036 157.141 109.252C156.96 109.292 156.776 109.32 156.556 109.362Z" fill="#231F20"/>
<path d="M161.375 202.446C161.539 202.275 161.554 202.245 161.574 202.242C163.559 201.86 167.212 204.121 167.59 206.05C167.674 206.478 167.485 207.163 167.165 207.43C165.652 208.696 163.894 209.475 161.877 209.563C161.718 209.57 161.554 209.475 161.386 209.238C161.931 209.094 162.503 209.012 163.015 208.795C164.18 208.301 165.327 207.765 166.458 207.2C167.134 206.863 167.228 206.26 166.859 205.665C166.574 205.209 166.203 204.776 165.784 204.439C164.528 203.431 163.123 202.69 161.375 202.446Z" fill="#231F20"/>
<path d="M107.762 71.1936C108.131 71.7501 108.441 72.3589 108.881 72.8543C110.105 74.2319 111.376 75.569 112.641 76.9103C113.425 77.7396 113.73 78.7448 113.758 79.8401C113.767 80.2132 113.63 80.5911 113.559 80.9669C113.455 80.9683 113.351 80.9697 113.247 80.971C113.163 80.6502 113.02 80.332 113.005 80.0077C112.951 78.8321 112.53 77.8509 111.692 76.9948C110.594 75.8741 109.539 74.7088 108.523 73.5153C108.14 73.0659 107.888 72.4977 107.632 71.9569C107.536 71.7522 107.596 71.4739 107.584 71.2293C107.644 71.2176 107.703 71.2052 107.762 71.1936Z" fill="#231F20"/>
<path d="M98.8852 79.1179C99.1513 79.8408 99.3889 80.4695 99.6148 81.1009C100.368 83.2021 101.371 85.126 103.394 86.3236C103.742 86.5297 104.117 86.6905 104.478 86.8753C104.49 86.8822 104.482 86.9269 104.492 87.1007C104.215 87.1405 103.903 87.2636 103.632 87.2045C103.236 87.1186 102.816 86.9695 102.498 86.729C100.066 84.8882 98.8685 82.3858 98.5878 79.4127C98.5843 79.379 98.6601 79.3378 98.8852 79.1179Z" fill="#231F20"/>
<path d="M130.292 200.894C130.065 200.944 129.835 200.982 129.613 201.044C127.238 201.702 124.841 202.314 122.896 203.947C122.041 204.665 121.409 205.45 121.961 206.647C121.992 206.717 121.913 206.837 121.66 207.027C121.498 206.706 121.15 206.348 121.209 206.073C121.357 205.38 121.52 204.566 121.983 204.092C122.737 203.32 123.664 202.629 124.647 202.179C126.046 201.541 127.555 201.126 129.033 200.674C129.413 200.558 129.86 200.657 130.276 200.657C130.281 200.736 130.286 200.815 130.292 200.894Z" fill="#231F20"/>
<path d="M110.492 82.2931C112.564 82.504 114.636 82.7149 116.708 82.9252C116.702 83.0516 116.697 83.178 116.691 83.3038C115.67 83.2536 114.649 83.2028 113.609 83.1512C114.358 84.746 114.373 86.2728 113.522 87.0313C113.418 85.6516 113.322 84.3818 113.226 83.1155C112.275 82.9286 111.357 82.7479 110.438 82.5672C110.456 82.4758 110.474 82.3844 110.492 82.2931Z" fill="#231F20"/>
<path d="M121.073 90.4902C124.672 90.6215 128.272 90.7527 131.873 90.8839C131.219 91.4659 121.915 91.1017 121.073 90.4902Z" fill="#231F20"/>
<path d="M139.302 129.777C141.583 132.004 144.524 131.007 147.168 131.413C144.353 132.419 140.301 132.18 139.302 129.777Z" fill="#231F20"/>
<path d="M125.006 98.7527C125.069 99.2714 125.052 99.7819 125.22 100.223C125.301 100.432 125.727 100.552 126.018 100.621C126.135 100.649 126.455 100.382 126.438 100.336C126.344 100.075 126.21 99.8081 126.023 99.6033C125.795 99.3553 125.502 99.167 125.2 98.9231C125.954 98.55 126.757 98.8997 127.143 99.6679C127.461 100.302 127.247 100.925 126.598 101.254C125.873 101.621 125.078 101.335 124.65 100.553C124.201 99.7345 124.343 99.1203 125.006 98.7527Z" fill="#231F20"/>
<path d="M168.531 94.7668C168.353 94.8053 168.175 94.8444 167.997 94.8829C168.062 95.2594 168.127 95.6353 168.191 96.0118C168.416 95.9513 168.64 95.8916 168.865 95.8311C168.754 95.4766 168.642 95.1213 168.531 94.7668ZM168.086 93.8653C168.555 94.1793 169.072 94.4164 169.436 94.7977C169.87 95.2533 169.928 95.8627 169.436 96.343C168.977 96.7882 168.384 97.0294 167.788 96.6247C167.221 96.2386 167.275 95.6367 167.482 95.0705C167.608 94.7242 167.811 94.4047 168.086 93.8653Z" fill="#231F20"/>
<path d="M155.02 105.92C155.832 105.567 156.501 105.753 156.766 106.325C157.036 106.907 156.786 107.336 156.286 107.651C155.662 108.044 154.756 107.926 154.409 107.383C154.069 106.853 154.116 106.369 154.79 105.932C154.79 106.23 154.72 106.469 154.807 106.619C154.937 106.844 155.15 107.095 155.381 107.165C155.544 107.215 155.795 106.986 156.006 106.881C155.864 106.679 155.741 106.461 155.573 106.281C155.455 106.156 155.278 106.084 155.02 105.92Z" fill="#231F20"/>
<path d="M157.957 204.441C158.923 204.238 159.541 204.407 159.924 205.073C160.279 205.69 160.051 206.261 159.552 206.697C158.646 207.489 157.539 207.638 156.397 207.627C156.373 207.559 156.349 207.492 156.324 207.425C156.61 207.335 156.899 207.255 157.18 207.154C157.698 206.968 158.25 206.835 158.72 206.564C159.625 206.044 159.574 205.337 158.648 204.839C158.475 204.746 158.308 204.644 157.957 204.441Z" fill="#231F20"/>
<path d="M175.897 95.4264C175.945 96.2729 173.925 99.3353 173.147 99.5951C173.084 98.8729 175.175 95.7033 175.897 95.4264Z" fill="#231F20"/>
<path d="M169.129 105.257C169.606 103.404 170.865 102.207 172.11 100.903C172.18 101.628 169.958 104.872 169.129 105.257Z" fill="#231F20"/>
<path d="M148.733 120.901C148.156 120.883 147.74 120.575 147.898 120.1C148.033 119.688 148.467 119.196 148.863 119.092C149.334 118.969 149.866 119.336 149.846 119.94C149.823 120.617 149.263 120.796 148.733 120.901Z" fill="#231F20"/>
<path d="M128.393 207.229C125.596 207.741 123.889 206.869 123.989 204.947C124.874 206.715 126.576 206.915 128.393 207.229Z" fill="#231F20"/>
<path d="M95.987 82.3549C96.6652 83.2715 97.3426 84.1881 98.0208 85.1047C97.9332 85.1817 97.8457 85.2586 97.7581 85.3356C97.4705 85.0312 97.1828 84.7275 96.8403 84.3661C96.9348 84.8793 97.0188 85.3376 97.1029 85.7959C97.0126 85.8145 96.9222 85.833 96.8312 85.8523C96.1322 84.8209 96.16 83.5718 95.7654 82.4497C95.839 82.4181 95.9133 82.3858 95.987 82.3549Z" fill="#231F20"/>
<path d="M158.839 106.909C158.633 106.556 158.28 106.208 158.268 105.848C158.258 105.55 158.599 105.042 158.872 104.974C159.454 104.83 160.169 105.483 160.008 105.967C159.887 106.333 159.494 106.611 159.222 106.929C159.094 106.922 158.967 106.915 158.839 106.909Z" fill="#231F20"/>
<path d="M124.915 208.06C126.289 208.293 127.418 208.473 128.541 208.69C128.672 208.716 128.762 208.944 128.871 209.079C128.766 209.15 128.647 209.298 128.56 209.28C127.46 209.067 126.363 208.837 125.271 208.588C125.181 208.569 125.129 208.388 124.915 208.06Z" fill="#231F20"/>
<path d="M137.86 123.574C136.959 122.524 136.446 121.307 136.262 119.946C136.353 119.907 136.444 119.866 136.535 119.826C137.062 121.032 137.589 122.238 138.116 123.443C138.031 123.487 137.945 123.53 137.86 123.574Z" fill="#231F20"/>
<path d="M147.356 116.055C147.774 116.52 148.262 116.89 148.202 117.032C148.061 117.362 147.683 117.737 147.349 117.792C147.125 117.829 146.638 117.38 146.594 117.098C146.556 116.856 146.978 116.542 147.356 116.055Z" fill="#231F20"/>
<path d="M100.613 67.3616C101.611 67.6694 102.946 69.0952 102.896 70.1224C101.978 69.1543 101.205 68.3401 100.433 67.5258C100.493 67.4709 100.553 67.4166 100.613 67.3616Z" fill="#231F20"/>
<path d="M127.287 95.6593C126.672 96.0365 126.255 96.3251 125.802 96.5374C125.731 96.5711 125.494 96.2633 125.335 96.1142C125.721 95.7534 126.094 95.3748 126.512 95.0553C126.557 95.0217 126.867 95.3267 127.287 95.6593Z" fill="#231F20"/>
<path d="M103.13 67.8268C103.919 68.7447 104.564 69.4971 105.298 70.3519C104.133 70.2206 103.026 69.0168 103.13 67.8268Z" fill="#231F20"/>
<path d="M130.144 97.8663C129.686 98.1865 129.398 98.5266 129.076 98.5623C128.871 98.5843 128.615 98.1535 128.382 97.9261C128.698 97.6753 128.987 97.3681 129.343 97.2101C129.452 97.1627 129.747 97.5303 130.144 97.8663Z" fill="#231F20"/>
<path d="M115.841 84.7295C115.841 85.495 115.856 86.2604 115.827 87.0252C115.822 87.1646 115.637 87.2986 115.535 87.4361C115.428 87.2773 115.219 87.1104 115.23 86.9606C115.287 86.2089 115.403 85.462 115.499 84.7137C115.613 84.7192 115.727 84.7247 115.841 84.7295Z" fill="#231F20"/>
<path d="M140.257 124.617C139.307 124.076 139.172 123.037 138.75 122.172C138.845 122.113 138.94 122.054 139.035 121.994C139.541 122.801 140.048 123.608 140.555 124.415C140.456 124.482 140.356 124.549 140.257 124.617Z" fill="#231F20"/>
<path d="M152.223 200.117C152.213 199.983 152.179 199.734 152.198 199.73C152.715 199.619 153.24 199.467 153.762 199.474C153.967 199.477 154.168 199.844 154.371 200.046C154.327 200.109 154.283 200.171 154.238 200.233C153.559 200.186 152.879 200.138 152.201 200.091C152.202 200.092 152.223 200.117 152.223 200.117Z" fill="#231F20"/>
<path d="M172.227 99.5827C171.686 100.22 171.144 100.857 170.509 101.605C170.306 100.787 171.151 99.707 172.007 99.382C172.08 99.4494 172.154 99.516 172.227 99.5827Z" fill="#231F20"/>
<path d="M108.526 78.2254C109.253 78.883 109.62 79.7102 109.718 80.6646C109.62 80.712 109.523 80.7601 109.425 80.8082C109.026 80.0043 108.627 79.2004 108.229 78.3965C108.328 78.3395 108.427 78.2831 108.526 78.2254Z" fill="#231F20"/>
<path d="M96.1725 75.0276C96.9264 75.5677 97.6921 76.116 98.4564 76.663C97.2675 77.0574 96.0467 76.0878 96.1725 75.0276Z" fill="#231F20"/>
<path d="M100.055 74.9857C99.1388 75.1897 97.8026 74.6964 97.2203 73.7977C98.3216 74.1089 99.3034 74.2319 100.032 75.0076C100.034 75.0049 100.055 74.9857 100.055 74.9857Z" fill="#231F20"/>
<path d="M107.852 66.3199C107.652 65.4549 107.451 64.5891 107.217 63.5791C107.91 64.0477 108.331 65.5167 108.117 66.2547C108.029 66.2766 107.94 66.2979 107.852 66.3199Z" fill="#231F20"/>
<path d="M98.4856 86.6507C99.1513 87.1749 99.6891 87.5858 100.207 88.0208C100.28 88.0833 100.306 88.2928 100.257 88.3801C100.21 88.4612 100.028 88.5169 99.9156 88.5038C99.3458 88.4344 98.6079 87.5604 98.4856 86.6507Z" fill="#231F20"/>
<path d="M107.19 81.8829C106.705 81.2542 106.221 80.6248 105.614 79.8367C106.537 79.9521 107.201 80.7615 107.406 81.7077C107.334 81.7661 107.262 81.8245 107.19 81.8829Z" fill="#231F20"/>
<path d="M100.975 87.2973C101.352 87.6339 101.717 87.9417 102.055 88.2757C102.131 88.3506 102.161 88.5409 102.12 88.6405C102.081 88.7347 101.922 88.8322 101.812 88.8364C101.232 88.857 100.715 87.9775 100.975 87.2973Z" fill="#231F20"/>
<path d="M141.507 124.94C140.871 124.559 140.679 123.958 141.132 123.058C141.347 123.653 141.561 124.247 141.776 124.842C141.686 124.875 141.597 124.907 141.507 124.94Z" fill="#231F20"/>
<path d="M106.871 82.9891C107.106 83.5072 107.34 84.0252 107.575 84.5433C107.466 84.5914 107.357 84.6388 107.247 84.6869C106.685 84.3207 106.675 83.6995 106.573 83.121C106.672 83.0763 106.772 83.0324 106.871 82.9891Z" fill="#231F20"/>
<path d="M109.001 65.6816C108.926 65.1333 108.85 64.5857 108.775 64.038C108.894 64.0147 109.014 63.9913 109.134 63.968C109.262 64.5018 109.39 65.0357 109.518 65.5703C109.345 65.6067 109.174 65.6438 109.001 65.6816Z" fill="#231F20"/>
<path d="M116.835 88.1341C116.369 87.6779 116.464 87.1735 116.781 86.6493C116.878 86.6424 116.975 86.6342 117.072 86.6266C117.103 87.1213 117.134 87.6154 117.165 88.1094C117.054 88.1176 116.945 88.1266 116.835 88.1341Z" fill="#231F20"/>
<path d="M120.952 69.0079C121.145 69.807 120.728 70.1691 120.143 70.4144C120.064 70.3553 119.985 70.2962 119.907 70.2371C120.255 69.8276 120.603 69.4181 120.952 69.0079Z" fill="#231F20"/>
<path d="M116.387 75.4626C116.487 75.7979 116.587 76.1332 116.686 76.4685C116.515 76.509 116.203 76.6045 116.193 76.5805C116.065 76.2644 115.979 75.9312 115.881 75.6021C116.05 75.556 116.219 75.5093 116.387 75.4626Z" fill="#231F20"/>
<path d="M150.684 118.618C150.474 118.324 150.235 118.11 150.275 118.025C150.379 117.805 150.605 117.642 150.783 117.456C150.917 117.594 151.182 117.759 151.16 117.864C151.112 118.086 150.913 118.276 150.684 118.618Z" fill="#231F20"/>
<path d="M125.842 80.4983C126.3 80.2468 126.759 79.9961 127.217 79.7453C127.271 79.8353 127.325 79.926 127.379 80.016C126.938 80.3073 126.496 80.598 126.054 80.8886C125.984 80.7587 125.913 80.6289 125.842 80.4983Z" fill="#231F20"/>
<path d="M114.823 73.6204C114.809 73.9214 114.795 74.2216 114.78 74.5226C114.586 74.4917 114.392 74.46 114.198 74.4291C114.261 74.1378 114.324 73.8458 114.387 73.5538C114.532 73.5758 114.677 73.5984 114.823 73.6204Z" fill="#231F20"/>
<path d="M115.129 76.5303C114.865 76.7522 114.697 76.8931 114.529 77.034C114.408 76.8794 114.167 76.6966 114.196 76.5757C114.241 76.3819 114.465 76.2293 114.613 76.0596C114.755 76.1888 114.897 76.3187 115.129 76.5303Z" fill="#231F20"/>
</svg>
