<svg width="34" height="34" viewBox="0 0 34 34" fill="none" xmlns="http://www.w3.org/2000/svg">
<g clip-path="url(#clip0_23_3946)">
<circle opacity="0.1" cx="17" cy="17" r="17" fill="black"/>
<g clip-path="url(#clip1_23_3946)">
<path d="M21.5 8.825C19.76 8.825 18.09 9.635 17 10.915C15.91 9.635 14.24 8.825 12.5 8.825C9.42 8.825 7 11.245 7 14.325C7 18.105 10.4 21.185 15.55 25.865L17 27.175L18.45 25.855C23.6 21.185 27 18.105 27 14.325C27 11.245 24.58 8.825 21.5 8.825ZM17.1 24.375L17 24.475L16.9 24.375C12.14 20.065 9 17.215 9 14.325C9 12.325 10.5 10.825 12.5 10.825C14.04 10.825 15.54 11.815 16.07 13.185H17.94C18.46 11.815 19.96 10.825 21.5 10.825C23.5 10.825 25 12.325 25 14.325C25 17.215 21.86 20.065 17.1 24.375Z" fill="black"/>
</g>
</g>
<defs>
<clipPath id="clip0_23_3946">
<rect width="34" height="34" fill="white"/>
</clipPath>
<clipPath id="clip1_23_3946">
<rect width="24" height="24" fill="white" transform="translate(5 6)"/>
</clipPath>
</defs>
</svg>
